<mxfile host="65bd71144e">
    <diagram id="-hcj8QjXtrk613pVTtAH" name="Pagina-1">
        <mxGraphModel dx="2441" dy="1303" grid="1" gridSize="17" guides="1" tooltips="1" connect="1" arrows="1" fold="1" page="0" pageScale="1" pageWidth="827" pageHeight="1169" background="none" math="0" shadow="1">
            <root>
                <mxCell id="0"/>
                <mxCell id="1" parent="0"/>
                <mxCell id="2" value="" style="rounded=1;whiteSpace=wrap;html=1;sketch=1;hachureGap=4;jiggle=2;curveFitting=1;fontFamily=Architects Daughter;fontSource=https%3A%2F%2Ffonts.googleapis.com%2Fcss%3Ffamily%3DArchitects%2BDaughter;fontSize=20;" vertex="1" parent="1">
                    <mxGeometry x="199" y="80" width="430" height="930" as="geometry"/>
                </mxCell>
                <mxCell id="3" value="meteo.peppe" style="rounded=1;whiteSpace=wrap;html=1;sketch=1;hachureGap=4;jiggle=2;curveFitting=1;fontFamily=Architects Daughter;fontSource=https%3A%2F%2Ffonts.googleapis.com%2Fcss%3Ffamily%3DArchitects%2BDaughter;fontSize=20;glass=0;shadow=0;arcSize=30;" vertex="1" parent="1">
                    <mxGeometry x="227" y="102" width="374" height="60" as="geometry"/>
                </mxCell>
                <mxCell id="4" value="" style="rounded=1;whiteSpace=wrap;html=1;shadow=0;glass=0;sketch=1;hachureGap=4;jiggle=2;curveFitting=1;fontFamily=Architects Daughter;fontSource=https%3A%2F%2Ffonts.googleapis.com%2Fcss%3Ffamily%3DArchitects%2BDaughter;fontSize=20;arcSize=7;" vertex="1" parent="1">
                    <mxGeometry x="221" y="187" width="391" height="799" as="geometry"/>
                </mxCell>
                <mxCell id="5" value="nome della cittÃ " style="rounded=1;whiteSpace=wrap;html=1;shadow=0;glass=0;sketch=1;hachureGap=4;jiggle=2;curveFitting=1;fontFamily=Architects Daughter;fontSource=https%3A%2F%2Ffonts.googleapis.com%2Fcss%3Ffamily%3DArchitects%2BDaughter;fontSize=20;arcSize=16;" vertex="1" parent="1">
                    <mxGeometry x="238" y="204" width="357" height="60" as="geometry"/>
                </mxCell>
                <mxCell id="6" value="" style="rounded=1;whiteSpace=wrap;html=1;shadow=0;glass=0;sketch=1;hachureGap=4;jiggle=2;curveFitting=1;fontFamily=Architects Daughter;fontSource=https%3A%2F%2Ffonts.googleapis.com%2Fcss%3Ffamily%3DArchitects%2BDaughter;fontSize=20;" vertex="1" parent="1">
                    <mxGeometry x="238" y="289" width="357" height="238" as="geometry"/>
                </mxCell>
                <mxCell id="7" value="dati relativi al meteo" style="rounded=1;whiteSpace=wrap;html=1;shadow=0;glass=0;sketch=1;hachureGap=4;jiggle=2;curveFitting=1;fontFamily=Architects Daughter;fontSource=https%3A%2F%2Ffonts.googleapis.com%2Fcss%3Ffamily%3DArchitects%2BDaughter;fontSize=20;" vertex="1" parent="1">
                    <mxGeometry x="238" y="544" width="357" height="425" as="geometry"/>
                </mxCell>
                <mxCell id="8" value="" style="shape=image;imageAspect=0;aspect=fixed;verticalLabelPosition=bottom;verticalAlign=top;rounded=1;shadow=0;glass=0;sketch=1;hachureGap=4;jiggle=2;curveFitting=1;fontFamily=Architects Daughter;fontSource=https%3A%2F%2Ffonts.googleapis.com%2Fcss%3Ffamily%3DArchitects%2BDaughter;fontSize=20;image=data:image/png,iVBORw0KGgoAAAANSUhEUgAAAK8AAAB4CAYAAACEqaLiAAAACXBIWXMAAAsTAAALEwEAmpwYAAAKT2lDQ1BQaG90b3Nob3AgSUNDIHByb2ZpbGUAAHjanVNnVFPpFj333vRCS4iAlEtvUhUIIFJCi4AUkSYqIQkQSoghodkVUcERRUUEG8igiAOOjoCMFVEsDIoK2AfkIaKOg6OIisr74Xuja9a89+bN/rXXPues852zzwfACAyWSDNRNYAMqUIeEeCDx8TG4eQuQIEKJHAAEAizZCFz/SMBAPh+PDwrIsAHvgABeNMLCADATZvAMByH/w/qQplcAYCEAcB0kThLCIAUAEB6jkKmAEBGAYCdmCZTAKAEAGDLY2LjAFAtAGAnf+bTAICd+Jl7AQBblCEVAaCRACATZYhEAGg7AKzPVopFAFgwABRmS8Q5ANgtADBJV2ZIALC3AMDOEAuyAAgMADBRiIUpAAR7AGDIIyN4AISZABRG8lc88SuuEOcqAAB4mbI8uSQ5RYFbCC1xB1dXLh4ozkkXKxQ2YQJhmkAuwnmZGTKBNA/g88wAAKCRFRHgg/P9eM4Ors7ONo62Dl8t6r8G/yJiYuP+5c+rcEAAAOF0ftH+LC+zGoA7BoBt/qIl7gRoXgugdfeLZrIPQLUAoOnaV/Nw+H48PEWhkLnZ2eXk5NhKxEJbYcpXff5nwl/AV/1s+X48/Pf14L7iJIEyXYFHBPjgwsz0TKUcz5IJhGLc5o9H/LcL//wd0yLESWK5WCoU41EScY5EmozzMqUiiUKSKcUl0v9k4t8s+wM+3zUAsGo+AXuRLahdYwP2SycQWHTA4vcAAPK7b8HUKAgDgGiD4c93/+8//UegJQCAZkmScQAAXkQkLlTKsz/HCAAARKCBKrBBG/TBGCzABhzBBdzBC/xgNoRCJMTCQhBCCmSAHHJgKayCQiiGzbAdKmAv1EAdNMBRaIaTcA4uwlW4Dj1wD/phCJ7BKLyBCQRByAgTYSHaiAFiilgjjggXmYX4IcFIBBKLJCDJiBRRIkuRNUgxUopUIFVIHfI9cgI5h1xGupE7yAAygvyGvEcxlIGyUT3UDLVDuag3GoRGogvQZHQxmo8WoJvQcrQaPYw2oefQq2gP2o8+Q8cwwOgYBzPEbDAuxsNCsTgsCZNjy7EirAyrxhqwVqwDu4n1Y8+xdwQSgUXACTYEd0IgYR5BSFhMWE7YSKggHCQ0EdoJNwkDhFHCJyKTqEu0JroR+cQYYjIxh1hILCPWEo8TLxB7iEPENyQSiUMyJ7mQAkmxpFTSEtJG0m5SI+ksqZs0SBojk8naZGuyBzmULCAryIXkneTD5DPkG+Qh8lsKnWJAcaT4U+IoUspqShnlEOU05QZlmDJBVaOaUt2ooVQRNY9aQq2htlKvUYeoEzR1mjnNgxZJS6WtopXTGmgXaPdpr+h0uhHdlR5Ol9BX0svpR+iX6AP0dwwNhhWDx4hnKBmbGAcYZxl3GK+YTKYZ04sZx1QwNzHrmOeZD5lvVVgqtip8FZHKCpVKlSaVGyovVKmqpqreqgtV81XLVI+pXlN9rkZVM1PjqQnUlqtVqp1Q61MbU2epO6iHqmeob1Q/pH5Z/YkGWcNMw09DpFGgsV/jvMYgC2MZs3gsIWsNq4Z1gTXEJrHN2Xx2KruY/R27iz2qqaE5QzNKM1ezUvOUZj8H45hx+Jx0TgnnKKeX836K3hTvKeIpG6Y0TLkxZVxrqpaXllirSKtRq0frvTau7aedpr1Fu1n7gQ5Bx0onXCdHZ4/OBZ3nU9lT3acKpxZNPTr1ri6qa6UbobtEd79up+6Ynr5egJ5Mb6feeb3n+hx9L/1U/W36p/VHDFgGswwkBtsMzhg8xTVxbzwdL8fb8VFDXcNAQ6VhlWGX4YSRudE8o9VGjUYPjGnGXOMk423GbcajJgYmISZLTepN7ppSTbmmKaY7TDtMx83MzaLN1pk1mz0x1zLnm+eb15vft2BaeFostqi2uGVJsuRaplnutrxuhVo5WaVYVVpds0atna0l1rutu6cRp7lOk06rntZnw7Dxtsm2qbcZsOXYBtuutm22fWFnYhdnt8Wuw+6TvZN9un2N/T0HDYfZDqsdWh1+c7RyFDpWOt6azpzuP33F9JbpL2dYzxDP2DPjthPLKcRpnVOb00dnF2e5c4PziIuJS4LLLpc+Lpsbxt3IveRKdPVxXeF60vWdm7Obwu2o26/uNu5p7ofcn8w0nymeWTNz0MPIQ+BR5dE/C5+VMGvfrH5PQ0+BZ7XnIy9jL5FXrdewt6V3qvdh7xc+9j5yn+M+4zw33jLeWV/MN8C3yLfLT8Nvnl+F30N/I/9k/3r/0QCngCUBZwOJgUGBWwL7+Hp8Ib+OPzrbZfay2e1BjKC5QRVBj4KtguXBrSFoyOyQrSH355jOkc5pDoVQfujW0Adh5mGLw34MJ4WHhVeGP45wiFga0TGXNXfR3ENz30T6RJZE3ptnMU85ry1KNSo+qi5qPNo3ujS6P8YuZlnM1VidWElsSxw5LiquNm5svt/87fOH4p3iC+N7F5gvyF1weaHOwvSFpxapLhIsOpZATIhOOJTwQRAqqBaMJfITdyWOCnnCHcJnIi/RNtGI2ENcKh5O8kgqTXqS7JG8NXkkxTOlLOW5hCepkLxMDUzdmzqeFpp2IG0yPTq9MYOSkZBxQqohTZO2Z+pn5mZ2y6xlhbL+xW6Lty8elQfJa7OQrAVZLQq2QqboVFoo1yoHsmdlV2a/zYnKOZarnivN7cyzytuQN5zvn//tEsIS4ZK2pYZLVy0dWOa9rGo5sjxxedsK4xUFK4ZWBqw8uIq2Km3VT6vtV5eufr0mek1rgV7ByoLBtQFr6wtVCuWFfevc1+1dT1gvWd+1YfqGnRs+FYmKrhTbF5cVf9go3HjlG4dvyr+Z3JS0qavEuWTPZtJm6ebeLZ5bDpaql+aXDm4N2dq0Dd9WtO319kXbL5fNKNu7g7ZDuaO/PLi8ZafJzs07P1SkVPRU+lQ27tLdtWHX+G7R7ht7vPY07NXbW7z3/T7JvttVAVVN1WbVZftJ+7P3P66Jqun4lvttXa1ObXHtxwPSA/0HIw6217nU1R3SPVRSj9Yr60cOxx++/p3vdy0NNg1VjZzG4iNwRHnk6fcJ3/ceDTradox7rOEH0x92HWcdL2pCmvKaRptTmvtbYlu6T8w+0dbq3nr8R9sfD5w0PFl5SvNUyWna6YLTk2fyz4ydlZ19fi753GDborZ752PO32oPb++6EHTh0kX/i+c7vDvOXPK4dPKy2+UTV7hXmq86X23qdOo8/pPTT8e7nLuarrlca7nuer21e2b36RueN87d9L158Rb/1tWeOT3dvfN6b/fF9/XfFt1+cif9zsu72Xcn7q28T7xf9EDtQdlD3YfVP1v+3Njv3H9qwHeg89HcR/cGhYPP/pH1jw9DBY+Zj8uGDYbrnjg+OTniP3L96fynQ89kzyaeF/6i/suuFxYvfvjV69fO0ZjRoZfyl5O/bXyl/erA6xmv28bCxh6+yXgzMV70VvvtwXfcdx3vo98PT+R8IH8o/2j5sfVT0Kf7kxmTk/8EA5jz/GMzLdsAAAAgY0hSTQAAeiUAAICDAAD5/wAAgOkAAHUwAADqYAAAOpgAABdvkl/FRgAAkTFJREFUeNrs/Wuspel1Hog9a72X77Yv55yq6qru6gsvoiiKsmRbgCUrQWJbIeHAHjk2IgITB4INGEZ+5J8mDoxBEk+MmQE88J84Pw1kIGQGEGXYgezMCArgSzAgbRg2Y8oURVpsqtns7rqd2977u7y3tfLj3eew2OxuUpI9liVtoLtq1zlVZ+9vr2+9az3reZ5FqorfyuOvgPD7j/r4r46X4s/9uT8HAPjc5z6H+/fvU9u2uLy8RNu2sNbCWosQAoZhABGBmSEiCnzrYi7LgnmeUUpBzllTSliWBeM4YrVa4fr6GicnJ3j06BEePHiAR48efcfr+T/o743rTr8fvL/9oL0J3GPQ4rmgJWstmqZB3/eIMcJ7jxijPnjwgH70R38UDx8+1L7v6etf/zr+6T/9p3j8+DFCCBpCgKpCVbHf73F5eYlpmiAiaNsWpRQsy/K+r+33QgD/fvD+NgL23UH7+PFjvPbaa5jnGTdBy8wAQMwM55z+pb/0l+hHf/RHdbVa0Xq9puPXkVLCOI76xhtv6JMnT/C3/tbfwrNnz7AsC3LO+MxnPoO//bf/Np49ewYAMMaglPKBr/V3ewD/fvD+FoMWwO2x/eDBA2w2G1xfX6PrOgzDgJOTEwBA27ZQVfzYj/0Y/vyf//N4+PAhdV0HABARAFARATODmQmA5pzx7NkzfOELX0DOGX/wD/5BrNdrfOUrX8FP/uRPIuf8m3rtv1uD+Pdk8P4NKAHAT//0T+MXfuEX8HzN+W/j8dnPfpYA4DOf+czNxVUACCHQsixSSoGq4uZXALe/v8nYzrnbIPXe4+bv//N//s/105/+9G/6Nf1uDGD7e+3Yvwncz372s/yX//Jfvgla+tKXvvTbDuBPfvKTeP311+kzn/kMAOD111/HRz7yEf2VX/kVHA4H+aN/9I9q0zT8N//m3/wt/4xXX32VVVVusw/R9xSW/xX97gvg33OZ9/ng/cxnPkMA8KUvfYk/+clPfsf3fvWrX6Xv//7vvwlCAMAbb7xBr732GgDgm9/8JhERWWuJiOjq6oqstWyMISKizWajV1dX2Gw2oqr69OlTnJ6eyuPHj/HCCy8oAOx2OxNCsMuy8DAM2O/3WK1W9WsAVhWNwG4H9H1WEdEYo+ScsSyLrFYrefPNN7/Xm6v80i/9Un78s/+J/H7w/gcavMdygQAwAPrqV7/KTdN8xxsyxtDTp5Zeeono8vKSb+rSs7MzOtanGEdjlmU0RBMZY3gYBgohMBGZlBK3bUtH5EBVVbz3esyclHO2IeyalLgZx9GrKosIjDECQFUVMUJVRQEoURZjTCmlqKrKNBU1Jpecs6RkhDlKzvk7AlNVtZRSYuyXZXkUXnnllfipT32q/BXQ78hc/L97/Wvkvcf/7eVX9PfLhnc9fvzHf5wA8Je+9CVerVa8LIs5B/iw37O5ZjrYPezBEDOT95b2e8vOGdrnbNbW8NuXM7uc2VprxBpjjTFcMjMbvjgcDKI4AF5EGueML0WtqnApkYWZjLJVzZaZfSmlLaX4mMWLiIOoAxIJtDBIk5RCAlFogWoREVG9eS4lZ04AAhBjjAgiCKomZ+RCRVMCYkoxItmQ0jOHwbs339zHz372s+FvfEbDXwHJ77TAbZoGRIT//TfeoP/7q6/pf3DB+xP/r7/3fAa8/bXrOizLgpQSRATWWjAzSikwxqBpGlhrbzp5pJQAANvtFofDAfhJ4JVXXqEvfOELtN/v+e1SzFlaWZ4X27fWFBvN4Bxzx5St5azZIM+cyBoHuCkFY2MN2ijJIkbH7I1YtZDieIEXQislN8TkS5IGUKNFGyZjqJARiAHAsYhDISvKDVSbGrhwIiAhFIFmA1MEWkRLBigBJhfNRYGIwlEhUUCLCAchCQIOBRpy1pBSDsiF56KEOGnijGbfa+IJgNef+7mf06///f91+Jmf+Rl9rxP4+evbNA1KKQghoJRyAwHeXmcAt3/2Xo/nv+/9Hh/96Ecp+YR/9a/+lf6RP/JH6OZz/0+vr+g/357o72feIwrwhS98Aa+99hq+Mc/sybI9aYxkYxvn3FiKcZ21c5kYapwEMgDqiAzGOXIOVhxgHQGeDVtn0GiBz9CWIR0b25ZSVoA2ADVs4KTAEKkYZhUhGAaKFi9ZetHSAvCiYGIUAxuYaVHVRCyJlWNRMQWSGCaKFIExWYXIgAwoGYApSaZSCpciVEomVkOSAwkTUWRwy2SMocePF4qxpeMp9O+1fHjxxRfpnXfe0c1mg3/5L/+lfvKTn6QbmPH/Mh7oP9uu9K+Hhf5PTau/54MXAJZl0TfffBM5JZ0ePOB16FxKqTlQBgEuqBjAW6gYMclTJqcqlgCXNXpENNZqU5RaKeoLG0eERkpeiWCdSjpBKVvVMnRd38QluiIKa03JoASmhIxSNLuU04Cia+uc15w15hwc41BgD8y8ALBFi1WFACgESoY5ArQoEEQ0gjlITN6y25eiqqIRajhTIQvLY5y4aTszzxO3LXPsWj4dVvTKKz/Mn/rUpxQAfvEXf/HfSxC/8847CgBf+MIX9NhA6+f/bB21/xc50X+REykr/vMU6T91Xv+vy0z/57bT33PBO46jnefZPXjwgHe7Hc/MLefcuFbvWNt4WrBflpkNqxdVl6UQVFsRsTlKS9AewJpU1mFBx0wNGcMAGWLymmWTUrhDhHvG0IaAQaV4QI21BqqSS5ZIhiKTiXGJzIaHlx6+tBqGzsWc8/n5xbTbHQBoERCJoEFRKiU6KKxABSpZwUFzjsaYDEJQh72KXrbGXzmHixjjlQpxMNlsW1ZRIrgG7Bp6rbNYrU5w//5AX/0q8rJAfuqnfqr8drPw93ID3L9/nx4/fqzv0ViC6Ft9839ZMv1Va/W/LJlSSiil4K/LQiDgP5sn+j0RvJ/+9Kf5n/2zfyaf+MQn7Ntvv32vaZrGGMObzQZdSkpN0yEKwWpRLU0EEkdVVWjMYlkiZ9Ue0LuS8n2F3iOms8bbno2xKkVKyYXZ2JzzupRy7/RkewqgjzH4aRrNdrvlY8aXaRmzd00izuXx43foEz/4g+7kdNMaZh7Px2StIe99GadF2XAnRVhyaO/cudNaaz0RSKWUi4urnCDl3r27BUxlv9uP0zJfGzLnMZWnjWufFObLjfChADvATNbS0nsXyLdhc7KKdt0sdniyfKht88VFziIipRTJOevDhw/lDQB44+ZKvoHXXnv/Burzn/98Od4AHxjE7xW4ANA0ze2ABgD+qqmBe1Mz35CZboY3v2uD94//8T9O/+gf/SP99Kc/TQDwYz/2Y/T06dNms9msSildKcUz+2wMK3IeIpg0Z8Pe50E4TSlo5uSYpYlF1ij5ZSn5I6v18Grj3H3XNJu+a5ucMk3TLCmbcn5+ToC0Dx8+XDW+GUSK995yKS0RETEz2rbVnIuUkuWwG0WKIMfAyzybO3fu0jiO9OjxoxJTHlRgjbEac7JnJ9vm4UsPGrbGMYhiTlivN2ItS9O0KEXKdrtJ8zjNueTx+np/cTiMl4b1nCwuGuueWmMvrLNXjWtHMiY6kigJcx5TvJxLJDJRGy0m2SydlcePH+ekqt3ZICqick36G79xpSIXKicnigtATlVFFXPO5XC4j89//vP43Oc+Jz/7sz/7gQF804zd8DP6vsd2u0XXdd+Wff+qsQoAf90udNOIz/OMnPNvHef9nfAopeDi4uLb/uzevXuEOu7Vp0+f6r17925b4PPz89U4jq8CdjDGtDkHDiEjlgJWHowhF0tJOUtcQhQi+JzSOqXpxRzzx89ON9+/3W5fWq9X26ZpWuecyVn4cNhJylnOn53j9PTEpJR9zsmUUjilRESEtm2/7XgMIej19bUCwEc+8lGcnZ2xc1afPXtWfvXLX04X55fppZceFussGcPmxZdetKu+t13XmRjjDRcCqNwIury8xhIXlVwKCPM4jss4jpM1fiylXB3G8Rlb98g37RNr3XnjmtG1bnZsF9eY4KwLxJyySDRMuQiyFSnG2MLMcZpmaZpWcs6lFJWDiDifRVR1CaGcWhuvr69L3/f57bfflk996lM3rKF/qwH27NkzyjlXJOR3Q5Z9PmCfH8Dcu3fv9vcA7KNH+8517KhkK3kxZO1QFA0TGyi5ouIMMxXS7KzNqtrC5LMU+KPD0P3AK6+8+uGua0+7rm1V1RQRYqM483eUCLperTDPM8UY6TiEoBuoiZlBRMg5I8YI5xwePnxIfd9jvV6DCMg5ExGZBw8emPsv3Pdd1ykRUds2xEQcQoAxBm3bUs4ZKSWEEPAbv/F1XF5e4fu//+O4mvbWOevOTk+7lx++vE45pWVe7j158uT+PC8PJMfHyvo0C12ZpPvk9UDFjNC8wFKgwilSTs64mFEkKmVbSiCyEiQVkpKModRLTrm4UlLKTbQpI2O73cbz817v3o0KgH76p39a/87f+QXKuXxPAfzGG2+Q9x4vvviifkDPcpuZ/4MOXmMMHwNUnwvSbwtgAHjzzTd9SkPbbO3awNKyn4WZuqJl470brDFNzKlJCR4g6nu/DyHNpZQ+xeVu0fzgzp0X7m82q60xplNVeyTSEAAQEUopGkLA5eXlDTsMzjl473GTKW5wUO89Sik3ZcQtNzfnDCKiF+7dg4jwDXZ6U+uVUnB1dXWLY4sIQggACH/4D/9htG2L7XaDy8tLvry8apz3/s7ZWZ7nud2cbPvL84vVN9965zSE+GLJsis5XzailxC6oNYfEGi2lhLBLFoksm0isyRHJrKjVFSLa3xQ1dh1XcqGl5jmQKERWlljlsZ85CNBru//IQagP/7jPy6/8AvQlL47xvvmm2/eDifeeuster8Afumll/TNN9+k/xCD9ybD4r2C9D1+DwB0fn5Obct26JttnBa+uD5svTUvFsZmaFs/DMr73bLNOa1SKomNcaGk/bgbN5Lj3VyWsyKyLqpNidmIFBJReG8hRSAqKCKkiltAv+s6MDNijCAixBhRSgERwVoLYwyICOM4wnuP9Xp9WwfekNBv/h4zwxjzbRzem+wTQsCdO3dgrYVzDk3TwHuPvu/x7Nk5XV9c2+/7/o+anLOJw2BXq64jMpu2beeSy/W0LBc5hrXIcG6t3RO7QMozrFmgEoxwgDERkGiNCUpEpRR4ZrWlONt1xXojC+di3STedzq89ZZ+6epKf/Znf1YBqPeeUkrvm02//OUvk/cer776qj5+/JieuzY0DMN3DieON6/9Dyxgb4KW8P40xuezrwHADx8+NPt9cSULppi6ENMrOec7xCSSS3cYiazhNTFvhXRKIa2vd/s5pdCUEl/zhu+FkLvLi2vDBColQ0EYhg6qinlaUFTgrYNrWrRtB+csVBXeexyJ6FiWBUQEAWCZsSwRKS3YbDYopeBwONwG6DzPt133MVPfTrc2mw36vkdKCUQE7/1N9r/J3liv1wCAf/2r/4amMNK9uy9ApNDJyYmBqrPWNUuIzWE6WCZDYZk1E2uMRqz1mRPUGquWDcgwGcsK1WIsFymwmURArmAKjrKRtiUXU9JrVaX9Xs5XK/k8IH+08mf0vTjI/+Jf/Av60R/9Ud1sNnj48KG+/vrrNAwD2rZFCIGGYdBSChlj9N3Z99GjR/Q7uWHj54JQj8/xXQL2Jqjl+P0MwL7xxnUzz9cDkb4053j/6nL8MFRPYNBI0YYJ65NN/4CJtjGXBMAexmnKMVpFeWno+tOT0/VmvVoNBOFlWTDNM/a7A9brAev1GrvdHqv1Cl3bQUSQUoR1DiVnqCqaprnl8B7JN7d/JiJ1dH2cKl1fX+P6+hoxRqSUbm8AIoIxBtZarNdrWGtxQ2xvmgb7/R5EhL7v0bYtrq6u8Otf+wbmsOCjH35VnTUKQOd5LjlLjikuzvlDUXmWYrpYlvQ6MS6J3cSMyGwXyxRgKVo2M1QDE0eBLswalCiqSGhNH0R00RYh7xHKluMrw5AfPXqU/tAf+kMFlWCvv4Wkdct3JiLd7XY8TZM+ePBAfyeWDc8HoTwXjPQB2ZXfFfA3GdcAMNfX136arttS0HJDrTMND0OeQ0gvMOOkQLq2sy8aw/cEYphhUs5kDPGwHbaq5SSmkhnctI1j5zyGYYWTUpDv1cznnL8ljDMTVHGLRZZSbjOjqiDGgJwFfd+h6zrs93tcX1/fBvH5+fltkOdj4N9AQzln9H0PIsLV1RVEBN57OOcwDMO3cUBu8NIX7p3dNIrUd+1NVjfMhryzTlU6Z8zgOv5kTunFw7j861ymt2NK5yBmCxhricSwAciQkEmajVE1IGa2llUvCETmtF+bZUnGXE/8hWWB/9jHzD/+x/9Y/9gf+2NFRPD48WO+f//+dy2AjTFUSlFjzO1wwjlHwzDokdtCIYTfUcHLx4B9v3Lh3dn13c0ZP/ervbq6shcXsSkl+kliaws6q94XlBaChiAmZ4EIXMni4HWNIoNztrGWzNlm1VrLfp5n2h9GaRpjRRSHwwHWGhAxjLEwhpFzuj3ib+ra1Wp1W5PeBOZuf4AqsL/aI6cEZsY4jgghIOeM/X6PUsqt2ni1WoGZsSwLnj59elsarNfr21Iixoj1eo22bW9RjRACYozo+/5G8IkQAuZ5ppwzDcOAYRiMcw6q6pi5Y2acbLefvL6+/uT55dXXvvTlt/9rQC2Yk2FmMmqhmqgog9kya7bWWiomU8uGkGm6vGTvO2b25vR04PyNb8jqJ3+SAJD3Hq+88oq+G9p8n4dut9v3HU7cXGf7OyRg6bnA5ff5PryrUbsN7hCCUVXftm0EwJeXlzaE4LNLLmvsOoJfOPmYiBhCMYfucFgKDII3rClJnyLWTdOurbe+9T23jTOlCIw12G43ltng6uoK+8MBfdcBVC+sO0raq3ynhTHm9qi7QRdijIgpY54DVAqGdQ/vHa6vr28zakoJKdWb4P79+1iWBdM0Yb1eQ0RuGzpmRkoJqorVagVjzG3Wv1EXP378GF3X4WMf+xj6voeq3jLybqRGz7PCbm64YRjQdR1KkXttZ+8fDuEtA7LCWoxwsY6dsCgMC5HxGVSGlTElF2tMZzOZRCkyIPxOsOYjJyfFf/GL9Nlf+zV86lOf0tPTUzo7O6PLy0s9PT0lALi8vHzPcmK32+lxePEdw4mbG9r+DigN8D5B+3x2fT6waZ5nE0IYjp07qaonIh9CuB7HSVOyvXPqXClrQ80QvcBnslByyxw7ETi2hJSlLSidMThRmMFY23TeWyLgMI4kRaAAnLUgLggx43AYEVNG17ZYlhklZ/TDgKbxUMWxPqXbYEopYbPZ4OnTp0hxwdnZ2W0gxhhxdXUF5xxCCAghoO97iMhtljkcDri8vISqYpqm27r3+YbuBsEYhuE2kz969AhLCPiBj3/8NmhvkIqbn1VKQUrp9vXcBPa9e3c33//hl39md0j/7X6e3jDs1RrD1jIxQHCsxlghZQfVJBrJSMNo2ZhUzIsv3h+225Pha1/70rPD4Z4cFSu3yeb09BQA8OjRo+9aB4cQ9IgwUCmFSil6k4X/fQSvfkBpgPeBwp5v3hBCOBGRF4gIKaVgjLHjGBk4uPPLRZeSeiZ0KqVnZZdKNgoxhmg1jsu9Kaa7pOWEIHcAc9ewGQiwpMpZClSUQqy1VtUaMJYwoxSFb3qIFMxzAMBg46AKxJghcgAzw3uPsCyY5glSBPv9HvM8o+s6rFYreO9vIbKbmrXrumPWK5imCfM8V2TiyKktpeDO3bs4HA5IMSIcSwE5Qmpt26HvOxhj8Oqrr8I3DV7/2ut49M4j/IE/8AewXq9uT4TnSxRjzG0dfZOJvfe4e/fuhujqD3ZDvyPCbJmjkvHG8Nz6htg4kZJjKmJEidkWskW42Zz2L75w+sowtGd37/7Y166urr5UipiYsmu8Lcx8q9d/8OAB/et//a9vP9cf+qEf+rbnzz/qIKd+Gjfvw/y1v/bX/sfOurcZ9H1wWX4XukDvysy0LEsH6KrSBQyXUliUNymWVkSaonkF4bWKdGpoq6XcESmnKvLQGGyd5RPL/CCndIdIX9huNyetbxpryaRSKOREKRWEZUHTNrDWI6aElCpEpqJQIhjnIQKEmBBjQogRMQSoKEIIIOLbLNp1HVLOkNp8fBuE5pxHSgk559tBxE1ZcHJyitPTEwAEIuDBgxex2WwBVcSYMAwD2q6HbxoADGsbOOdhrQNUsdtd4/ziAsba2+xrj7DdsixQ1dsa+ib73kB8h/EAIvOkcdYPQ9813rFvGhhrRSEpSikgpJIlEyO1/WD7xn9UFD+6xHD/aj/5k5NN6RrvRKSJKcIaU3aHCedXe2xWPV544QW6qeefPn2KH/qhH7p9/vx/MUYYY0hE0DQN/Y+defm5cuHdwUzv+tp7PQcATilxrXnSXkROjHenJNSFsJwAyIXkqvXO56x9ydwbgwfq7R0oneaSm6YdPta1/YvX1zsvkqVp+7Yf2r5x1o7zQtO8gJmQY8J4OECF0K8MiihEFaoCMEFUEUICFChJUTShaRxs08A4BzYGOQssHTkIRGiaFk3ToojCEaEUQQgRbLgiFEWwhIizO/eOGTJhnOZj87ZBiAGqgHUew2pTTU2MARsLIovDuEBkwTC02G5PUQTohjVimHBxfoEQIrabNcZpQk4ZRQQP7t5V59xt3VtKuUVITk9OTlPKH/Ntc/DWH2DommCuYwi0xBihNilKGLp+IAL3bXPinP8+EWlK0mV3WE7mJXxkM4zf6LrmfLcftW2aAtG45FyudqOshg5H8rl+6Utf+mDN2rH2TSmpMebfOSWS3ieL4n0C+L3q3W/7einFAugvL6e7IafX1n3fWcddSvIqUCQs8XFOUaVoI1rWhvQ17+3Dtmm263bzCim9aBvP2y0g4NI0Ti1bnpZEOQqxEhgM0QJrDIgUKc2w1oNIkXOFwkpRsAXY0FEsofDWoht6MIBpPMBZA2s9rHMAFMbUxm6ZF6RYYbZcMjw3NaOD0DQd2NTvd3yEvojBxsA1BC0KZkbbr+CdQ8mCaUlYloKUMgRAiBHWODjb4t7dF6AaEUNCCAuYDRwzckqw1mKaJiqi6qxF17WKY2dPxLparRpm/mEiusylfNV7b0Ds2tZquzQUcl4T03rVtkUNelW+c70fX2kMnQs0NpZknOPq6dOrYTW00Rjmgw1l1bXKxgBQfefJhb7y4l0AuAni933s93vdbrd0LHH+nZLR6QMyLr6Hr+l71MXEzDTPs1/i8jAXub8bx6Zr/L22bT+Ss8IwXhPikvLiD4ed2Z5uPrZarx8w2bNxCp1hD4QRrrFY951hWwOECXDeom0cDuMBkhNOTk9AbKCllhA5R+RYsdduGLBeDRAVtG0Dc8R7jamdcNN4NE2DSqYhdP0AyeV2NJxzgghBiRGzQDLgXQMQgVCzvLUOtfejeuQDuLFpEFWMc/wWdKQFIIK3N1RDgR4vYdcOGAZgmgNKjihFcHbnLkrOSDlrThmlqCoRnLVKgKaclYhUS2Fr7cp79wOlyNvE2Bk2tumotcXtrw/j3Ufn1zMYL3rjP5o135GMt1XxOjGu75ys0Hp+cQmJYogiSUMRxFXv9fL6gJxLeVfj/h1auM1mQ0fPNt3v97rZbKhpmn9nmfd5COzd2ZM+97nP6U/8xE/QF7/4RfrhH/5h/dVf/VX6wR/8QX0f5OE7Ats567q2jYdp7lT1BWP4wznHB0VVjWHH3vY5kazWQ3O2PXvp6mJe2b41yxQx9AyCwBRTj3JnkY+NmUrGuETkFDGOM7puwGrdImfC4XCoeKxkNL7FMHRoW49xnDBPI+6c3YH3DillGMPouh7eW0zTjKIRznp4b48cBELOBlkVJStiDMcMbm8DjgEYU9X5esQ6DTO0CIQURAaqESXXhs0aAxBABDAD3lqQYRgiEBnkHFBSBAhw1qBtGphhQBGhlFUNE4xlJWKBqpYiQszatl4JyCEmOy/xoff+buvdWSr6GKyX62E4CGaXU/pQ1PIxFKTDNBlRtXe2wxNC6Q0bJc5z27jFtW1g5kTEkrLIeuj03cH7iU98gv7e3/t7+j5N/s3zf6uZlz5gnEuf+9znsN1uqW1bAqC/+qu/SgDwa7/2a6yq+PKXv8yf+MQnPojXQADIGMMikmKMtNuNc+vdZC15ZnPXG3bOWoYpPZuVW69W2yJkQAE5ZhCAnAqGoak1lDNIKSDmDDKKHCJySdiNB1xdXaLrO/R9C8MGrnHHYKoj3NZ7WGOw3qxg2d7iuTfH7uGwx7NnI3LOaNsW0S7IYjH0DHfMvloKlABrLAAFgZCPcJYqUH1xBKqogagCsQzJBdACJoaQ1CFIKSDDR+iMAVJYrhAaFCi5ZjRjLcDAkiKcVJQki4CsIVssLAsZA1UYklREKSrAnHMRYtuolOEwpm0/rE6XEHfem3y2XW0YZjPOkwspz2yGdevs0rVNlFKCcxjXTHu2PDVNN6eYU0gxE5HMgd6TEXh9ff1dA87+O2rKbh+f+9znaLvd0vn5ud5Mhc7Ozni322nXdcTMdGRi0XuUCvqu3zMAvbremyfnV2cpxlMmvSO5ues7t3XOtcbAhkiWjZjr/WS8bdA0FgKFNQ5EgCjQOIaqIMSE07MTeOcgpXIQvvjFL+LN/RsY+gHTNKFkgUJux7BtV4cRXdvdHtG1RnYYxxHjeMC3/Mi+xWfwbL81q7cGJABTgW8dtGht5AwhZ4WWjCI3WZgAKcdhP6BakGIBjg1kKQIlBkNhmMCGQMd6GQDIEJQJMWWQ1NLlcH2AQhFSBsAkZNA1Fl3Xcdv3BEkackHcFdM6y/dONlkYFoBxDUM0d+tVd1cFYMOUcyFjONvCvunbprF+5b0NCpl9yVPOui+lHCASoCXllNOSUrm4ui4feeXF7wikv/AX/gL93M/93Hs2cJ/+9Kfpl3/5l/+tZF56LxThc5/7HJ2fn2NZFrz++uv0kY98BJ///Ofx8ssv0/d93/dp13V0cnLCIQT13pNzDvv9np1zOGbn9+It8OPHj9tpnAbWdFpyuh8zXhbtG2Y6Qk1wxhijWU0IghwXGEfgI7+2bWyFukSRJaJtWnjn0LUt2BhIUdy5cwcf/eiHAa1ZMKVwnKDVmpYArIbhdgjRNA0EwO6wh+SC7XZ75BBUKKpfDTDHQYK17haSIm9grUHJBWIUQEHOQC4ZUhRFBIYZfe/A1uIwzaizfq2nSClYYoaKgi3ByE1jABgiFDJArjfBuD/g/PwpTs/O4KxDygnzMsO3HXLMyHlBnApdXhp64YUXlIxTENA6Q13jLVtuDDNSjGSdg5TaSIq5KcGLemvJWatEaI3htUpRBRZVBMM0p6yT5hyIeem6NhWlkpMIgPBcDCkAPB+4f/JP/kn6pV/6pdvnv/zLv6wAftsyoPdED24C9ytf+Qp9/OMfV+ecuQHpu66jZVn0+77v+2oz0XV8ZEXRnTt3EEIwTdO8m/rIu92Od7tdf3V1dSai/1HTNv+bJ892/bQsu85b3/Xdqbe2W29WvXfOhiRIMZMAWOYAZw1euLtGLooiBTkmpByxzDPu3LmDk5MTWNuAjsfwo0ePcHm5g2qGtQ7eu1v+gDEGwzB8q1QAI6XKT7DWHkk4QAjLLUnG+7aWHWzAqHVqUcWNZV7JCSFlxHCD9yrAQOMsrGEIgHlJWOYFMdWfGVNEWCJ2ux2gBX3n0DQevhnQ9z3YEJgJMSZcnp/DWoOTk9qE5hxxGGfEsCCGCO8bWOeQs2A/Trh37646a9G2HkQGzhB828A3HgSGHstUIkCLQkQLSMQYm1Q0+caOMeVdjvkZG/MEwFsKektLfmyte6LA0yXEi5TL+IMfe+3Z87Xs88H0ftn3t1s2fAez6+d//ufxyiuv0FtvvYWHDx/SK6+8Qk+fPqW7d++ibdsbdpP+wA/8gD361pL3Xp89e8YxRh6GQdu25aurK7rBQ8ZxdPv9vtvtdhtVfXA4pD/btv3PFHTDvbtnePr0MsYYZh0X8tt1wyAWBUx1wINAoI2BZUbKpWKrMSDnBHvEX8dxxOFwwOnpKc7OziAANpuTWyL4ZrM5gvgW43ioNe9RAXF+fo6cM7bb7S2r63A43DChbnFTkQxmB8d0RA8AwwRQLTuMdWjAtY6Fq6J3ZnjnEVNADhkGgGVCALCEEbvLa+x3I55c7jAfIk5Pe5zd6XFnm5HCePt6cs6wxmDoPXIKx8kaMLQOWgpWwwrOORATmBhd6zFPExVrYS2jcQQBY5wnLPOCIhXJSCEii2pl1jXsDWCssSkVNG3T+cYmYqxSjIuoHhrnDkvKs4ou1tvQtXbp1KX3i6t3B+6f/tN/mv7BP/gH+m+r5r2pcfVzn/scv/LKK7cNzZFzSjfkkc1mQ+M46mq1ort375qmaVhEZJ7n4pyjD33oQwqArq6u6OTkhMdxNE+fPu3Pz8/PxnF8sW3b/+nuOv4vnl2HPwxTzHYUbE9aPHx434vAixTtO1cHCaJEUKQcYA1h1VmoEkKo0JKK4uzkFN7X6dbFxTl2u92thVTdFVEtje7evYeuayEi36ZqKKXg8vISy7Lg9PQU3vtbC/5pmjAMw1GqAxiTUVRhOWIYBnjvIVIbMVClUQpQhxzeoqQMdQCxhbN1smbZIFpCLBlmAcKc8euvv4XtqkVrGZEKHj0+B4zA2QbeejStQ9s02GwGWO/gDEMgyDFjnBekvKCxDiebNbq+B0AQqfwGxQ4ERo75yIwDQsz1JqSKhduG0bqWQACrUC7AOC4gAxXJDtq2uUhXSu4B2oQQ9qXoQaw5rEzfkDWsRO9GpW5//Zmf+Zlvq3ufD9zfavDSe+Cw+Imf+An9yle+Qiklstbi2bNnfEMiuZnRn52d8csvv2yOf1aOQcCvvvqqllIsqD7efvvt5tmzZ9vLy8tXjTEf8d5/7Mn1/BcGvzo72xoUZZSSQcbAuxZsAMNE1hgULVimGfOyIJcMFQbIIicBEWAMo208VutVZQaJ4M6dO7h79+5tLZpzxm53De/b28C9YTQZY48niGAcR3Rdh77vMY4jUkrY7/d4Ttd25ONWxCFVLgas9cdGiitKQARLDGMYBoDY+rFYJmRReAcUUzN232agdEhPL7EsGUvY3zaAq2aFvtvAGAvAwvkWq1X3rUkc1c9CkdCoxcoxWAXX4wFX44y2bdA6B+cbbLZbHMYZWYAlJCxLAFuCIwNlhZBgWQqc8+i8gwqQcqKUE4cpchHhvvWGDHsCOmLuVXUlRYa2aQYyZJ2xxTr/nn3TbrejzWbzntzfn/qpn6Jf/MVf/C01bPocN+F5aOwmcGm1WuHy8vKG9HHDJOJXXnmFj+WDHDVaTERkjKEnT57YZVnaq6ur1W4cz+Zpeq2k9Ik7d+/+gLP++569frky9xy2mwaGO7z5zjMsc0IsBUYBYUKWghwjDocDCMDpSeUEKBQBC0TqxV6tVqjcakDkRi9mABBKqaQVYyyGVX+rPdvv98fAczCmNmTWOlhrcXFxgcoNrkSXGz7tDdjObG85BbUaqkIPBgFkgGODRcQgfq5LFYEhgK2BZIVyBsgglYxpXtC2HnOKsMTwzqHvG3Rti341oG8asLUIBeACNAaIuSDlghgyUi5YQoJrGEoWBKpjajZQqTd5Yy2yFLTkMS0Bh+sRlgzAitZXFCfngikXCAApSk/PL/RwmMl7a+bWOZFirbWNtabPWTrnbGPJuMM4W8um7VoxN33N8zXvZrPRDwrc32zmfbeOTN9FAL/NOH3f04c+9CE9Pz9nIsIrr7xCd+7cMUdvWlVVstaKqiKl5F5//fX26dOnJ2MI90tIL4mUV52zH+nX6+/r2va1UuTu2aZ387hgXgJ8G2G40gGXKUChICpgUkzjCBXFyy+/iNVqjRsT8cU7XF1dAQx0fYuSSw0WAnIuSKnAOYvL6yvM4wTnLMZpwuWyVJnOOILAx5HqePRh0Ft2VlU9AKXkWzVD27ZwroFqlf1AGSEkkDFw1kIKakZEbd4MCo5jNBwteVFEULKiaEGOGbv9iHeePIWoYLNdYSgFIgUKBoGwLAv2BwfrHDoQljkCAqRkkHJGVePUGz2mjIEaDH0DZ2u9S1JAhlBSqaR7JXRdg641+OZb9T22jQVugr0oDkvEfp6w341YloXWm5X5+Mc/aq1x/u13Hrlnz54opMzGurZpmm5p2paKtK23HTM374qxbxMlvLt0eN7IxP4malt5Fwb7HVTGGCNyHSvCe0+vvfYaYozKzCQiekMkJiItpZhSCl1fX3ePHz9+aZ7nDxtrP75eDx9eluWlvu/vd1133zl3UiS3V7s97fYRbefQ94LV0CPljFAEOSyon3q94PdfuHPcxFOvhQDouh7WWZSiCEtlfCkyDDOsdcglYxwPVUsmQCkLTM5QqeSZGy5AjJU8Ps8LRBQiBTkn5FyOjdBRa2YtbBYAEcZYMN+ohqmOmI9NGpFAuE7RbnQCN/iwaEGMBSWXKiHKGSkmQADnDFZDjxgTklS4rGSBKkOKIKcM0/ZoXeU6LEu9SYsomCtTyxCDmNBYCzYVasxJUaBgradDyoqUIwwRXnv5AQDF9X4EQFgNlXu82azwwNxBjIq+bclYQ4/Pd1imSMZsh5cfbltGXId44GcXu4vr3aHzvrFFXEvE7XOnuH4ALfY70Yaja/x3QxPkfaQ3z/9QqhhtR7UZ0Zvin0oRnaZZNpsNiJiYWWOMePPNb3TPnj17ebfb/9BqNfzIvXv3Pp5zfomITqx1axHtQWSfnY9mNy4w3mKzcuhbQtckIGdcnueaIVAAFZydnqBo/ZCKlNtXq6qAAsQEkdr915KhMrmGoQeI4Y+BbE2lOxLXYzuPGTnX4BQRTNN8zOp6pDoqVAtiBJyvlEOo3vJ7ge6YZS2gNVOWnCBq4IxBkQI6EmZSEpSSK3S2LJiWgBAWHMYFS8hYlhnLtKCgXuNyM6gQIISErmuQsuAwjfDOwTBhXAJyVpAheLbwjYd19aZKOQMZkFLqzR1znToSIYSAcV4gJYOU4VwdcW9PVkds3MK6mgMbryBmhJAxHuqOuJdfegEgMfMsZ0sGmPdfm5elCTEN+5F9XJXmGIP07nh6vwD+E3/iTxARgdJ3X4tEH/D8O+CyN7/xDTbWfpvy0znHTdNgtVpRVX1zefz4sfvGG2+8tN/v/9BqtfqfvPDCC39AVV8bx3GjQLvM0YYiXBGIuc7xi+KwH7FMGettg822w6obKmPLWnRtV5uOpsGw6irmCoDZHAMVtxMpQAAFQs4Y9wcMw4B8zGDWMlQVMWQoCkJI2O92x/rVgCshCjHGWxTihm+rAIypAWOtgfMtnK+TucY5GMNgPlr9HmtiQ4xyLG9Sri44yxSRpSCFiJAixnHC9e6AGBME1XCkCIBcUYCiBYYJzjW4/8IZ+q6FsVzH2HzEl5nAN9J766AqSLGS6kVrwlEBwhIwhXjkKkcUSWAQmCz6rkHTtLBNHTtbW4OXibHMAcY5AAbnl7s6PHFU7a+JcXY6jI2nX7neXf/q9dXu3xzm9LVh1b/zZ/6X/7N/cTw6ny9Jn/8P/+1/89/oe2Re+W6Z93uRnd/++vDllxWAPnr0yBARHjx4oM+ePaN5nrXxnqy1WlTN5cVFO47jy8MwfOLll1/+OIDXrq+v73Rd58dxMnOKJAUYlwgixpPHV9huWjjLiEZwebUHWwKTgSGL3to6WWKGsbXpKMf3lmOClAJRhSFTdUUq9YKHBSln7A+Hejwf78WigEoBs0EMC9ga2GMA5FJLBVFFSuVYR5bb06ZpgAwgJobNBW1uwUTIzsN7B2sEonVMDcgtN0KgdVXrvGBZAghAiAHjOCPFgBgTpnHEEhNUCyw5EDNAQN96DEOP1arDdmgr2d0YOGfhrAUbA2MNCFRPE6rj4lISlpCRUsYyVZ6H3GjwCLAMWHZYrXo0zh1hNGCJCdMUjtey/ntFaxIhGGiR25o45IglZBCj//Br9z/WD41sNpv1OM6FjF1Y9UyIdqqabsrToxXRrcKjlO+0jLLlg+3W6TcxrPg29tj9Bw9IRLSI0PFnUCoFxEzEjHlZVuv1+v5ms/lwKeVFBU42220TQ+IiSpYMuLVouxaPH11hXiJSziBiWM/oXI+2HY6wE4NushkRighiro4qKoqUcs2KWjCGBTlXUgtxJb+QqcyyosCyxAqJMcNZBkwlzhRh+KZmGFmWiomWWjIoCuR4bVWl8mqp3ihQYEGAaEHbtCjSomnqDDdnARsgS4KxDsZYiBIkCwiEFAXjYcY0TwhLxDwtCDGhpAhRRUEGjiZ+1hzZZM6CXVU1K2opI2oALTBKtQ4SQlZBTnL85AQxRRymEeO03OY/MkDjHIahg7UE6y0sH5lv6Rj0uU77Si6YYkLjHFbHcXgp9ce1zmC9auCNofPzyzPX2D9sSF5ZbVb9pu+nmPNvuLo34BmIlIgUqkpEQkT6xS9+sfzFv/gX9eiuo99L5v1A7sJzxh7v5iDYIkoi2TFBiSifnZ3p1dWVUVUqIhyXhUV1ENWXSil353lZhZj9nApLEVIpEJgjLFOvZNN4ZAicYXjboD0C8P2qRWMsyBgIgFwUlDNSFoAIUkoNkuPnlnKBFAGoDiEIppJ1jnwH5yxCrKNTZw28c/CNQ+PssYHJx+ECIZVSp01Sp2WlFJQjTmzAMP44QRNBzoIFC7IopCiyy7VWzICAoTkfDUUM+qFHmAPmZY9pjpimiBCXekrEeOT0CkKo/0bJAkgN3v1hRAoJ/dDAeQdRi5wrpTIdG0agqjZyylhCxLQkXF5d4/JqjxgzCATVgrb1MD2Qo0VKDiGNkKKwxmCZIw7TASqCtqlohcv1s8o5IBsDyQXeWtgKzCCkBIKnrrMe4HsM/REwd28/vfrQ9W76/61784/bs5M0SNNNJi5LjHERSde7E3z+85/XG+vU8/Nz/aDM+20srvexWfoOIvkSopEiLKoMKBExOWudtSYXUQ4hEAA3Hg7bksuryxJfDOHydDV0/RTVjkuitnUgURhLCClit5sAANvtcPuybvirJSeExcGuHJpjoyAWKHKU7eRSj2fUAHbOorEMayvlECIwtnbZoKqKaF0D7xiPUzyqcun2zYuiDieWgBQTcipgtvCdAwMYxxk5RTTO3DpCqhSADLIp6NoGQEbQBTkb0EIwbGoN3DQgrpPSkhJCCvWkgSLnKvgMSx2UKPRYsuuRP1zqh0UVyisQjGMAxgBiQtv4OhU71rk3TjzzVPnJu8OMZ08vj5nTwjdNrZPVoJSMcZ4xHgWhzEDMlc9gnIVzHs5VF5/Vpoc1Bp13AAhzTIipQEUwTxEqwIgFl7s9W2PaYehePszhZcPuTywpPTqM/P/8ULv6/8amPMpjupqmw9gTyXp1rf1wR3/4h38YAMqdO3foyZMnamvz8oG8XHqPIcV7y3S0QpTO2KNCdaT1akXjODpmopyFry6fbA/j9CFR+QNZ8oc8+xemKW9CFiOlIEwFjbfohhViSmi7jMgJ1lmo1sxWpwsKxTEKFUfBIRBzQgwJIvVIrwTtOvYkAppjmVFyhhRByBmsAJFBklq/GgM8uHen8hSmGdCabeRo22SsQYiVG6Eq2M8LYsgwtkEDhrVHqVBOyEe5EIoiRELJBfHov1D9EwwMZ6wMQUxt8sgxZNKj4FNhTJ1U+ptNR1lABigFsJax2azQtf4oF+I6OJgWxByPs44q1jSGkUuuYtKYkVJACDXAshQwgCAZKS1wbEGSUHIGHSFHe6RWlqJonEPXWRgDWAN8i9EqKFJgncW67xBSBFSQi8UUIkpKgBr4xtX3KgLfWpxuVw+g/J88fXL1H5+ctP+waZvPb1z7RSJ55+Tk7PL8wuLu3buC56xTbZHyvZjbvZ/e7NsydMX8mfa7HRk26BoHYlXvrVFVTOPoLy/P7+ZUfrDp2h+ByA/Mc7p7dZjdqqtHGqF+KJeXV4hFkWJEihnMla4N5prNFBUvbeqO3mmejoMAIKaEXARFq9DRWIb1FRYqOSEnOspkBDkp8o0jY0qY54AiGQY3FEaD1Xq4HSYwM9haEFvg5gaRSvIenEXWghALNCeAMlCXpoGZEGLCIgnO18aHjIXl2kDOIdWhCQDHpk6w3ILiWwAM13jMy4ISA/TIOCulwFAdIrjGA8yIoU7fxnFCESCljMura1xd7cFMaFsP6xjh2BQWVXhLcI2v8GISlFJNSoqk2ijmjJxqfU1ccWTnPFabHn3bHMn1HgDBOIPNegXvLdg4eGuPTePNCZKRRGBtgbcCP3RonMWyJIxzgGX74jKX/9V+d/1jztN/D8P/Pan79Xsv0NVh+AgAhBvr1Hdn3vdyY8R7YLz6XpL02tGDYkywVsg7D5XK+CQiXuZ5E2N8ufH+kzGkH7m6Hl8D2DMygAprVb6DYgkBKWaUI4IiGWCYCilpgbEGoAJj6xGWtFSmFvTI2QWK1OPUkIGoIIaEeBziqBaoVK5Byrl+0DmjSK5viCycY1jjkGLBs2V3G7gMIIYIYxmqBFGGiGJOGTnW06FtGrSNreYeAIpUGOoGVu+7Fr5psCwJogKvBcSCJQUYa1GkoPENpjlVKEwKWmeRSWrwQlFsbRrjvABa3X2WUHA4TLi63iMsCeO84Pp6h1wyiIFutkcfiFxrUAK01Od1wFKTwpIzwjLiomRMS8CyBIRcwFrhQu891tsefdvC2gZdWymV/TCglIKTzQrO4XhC6rGZrjZZISc8Od/j/OqA9TDD+wZLjljmhLP1wKrr9TgudrNqfuzuvfUTohJy4WKencuX3vlmurFOfXfm1XfVsvQuvO39pmsIIZgnjx8TG6NSBESsd++cOU0wUjKVnPkwTScp5Q+B6BPffOvJw7ikdrVeoe8HCFUpC6pDeL2A04KQY23YfAPLNWhtc2zY2gatq3P5GqRaVQQ3hm3FgqgC5zkDUmrNmiQjzglFCgoUhgjGMJwhOOMwDH1tNKytCEQMmMYFx9WTR1w2g9nAmvrzjSGIAFkVMdVhxmq7QtO2CEs9njNJdf9jC2KDaV6qKFIE7XHLeyXEM1IWLMuE/X6Pi6trqJSKfqCOg3EzhCEgEiEEB4FgPwbs9nO9+UPCbhoRQwYT0DauYrKGa2NLgOSMMQSoZFiuePOyzPUEQq6j6VwQQ0B4jvg+DAO20xpt26FpPLq2rVh5ziAtMCjohwFsHDgwjHEYlwrJpSVgHBcoM8Y5wFmLzbrDvTsrnK23IGbpe1f6vtk6az7BZC7HlPO0LDxvV8uNdao9aqbei5KG5xCFD6qDFQC/8cY30DSeU4h6OBy473pLBKtFmIialLMvKd3NKX84p3w/LrFxzuNks0IWxTRHGAPEpR5T8xKhpRyP+oIUA6hp4IyFO/JODQFZAdI64cpV0VLHnoYAAQybWt9q1YgBWmvdGDAfjUGggLGAsw5d16NxDOs9LBtYKFLJyFKzrRzx3yVmNM6iH/p69B+HDJYY7dqB2WAJGcZWKM41DKRY5TtOMU1z/be0lkZcCpxpIarY7yMuLq+x2x0wTod6dKcISKlzDdG6vlAUxFIxreMBmULENM91SpYylnHGEiKsNWD02KwHnJxucDhymBdJyMdBiKSCEBZMR5f2m7H37TUL9dzCUaN3eXmFfhiw3ayxWa2QUkROC3KaYS3QtQ3YELz1YGfAIWM8HHB1fahSJ2J0uaBZD0hLwHlOGMcJfdPCOXaQeAqUl5y1rzrrLjbbzeG+pUfP/tW/YvzIj4g9+lfpd7Fdej9DEAJAb/zGb8Baz6qqh8OeU0wIBM6pOGe1SSn7FMpWit5nY16axsO2bR2/+OAF9MOAy+trtI3F1fUeOReIlhpwgqP3gb2tUW+mdgrBOFZ+AUiOEnGAwDCOYbkOLer/5NbUI0bB4TDicJiQcjlqvQSt93C1BkFRIC8LilQT6BgiYqgG0o4NYG3VlxEjlwiBg6QKCzlLgCpyimDnYY07St0LnPcINmJaZkjO8N7DHtlZznoIAM3Vq3eaJoQ0I+eAGGbEuCAsEaEslbeAmoUNG1hbqZMQQcpSMfFUORg3o15vHVIIEI0oOVRyPYAwB1xeXaPkOv6e5hnLMleMmrQql5lhjQG3vpKgQFBU1pk3gORU4bFoEQzDOofDYYbhS1jvq1LZLhiniOvrPXaHPVJhWAOEMGI3XmNoW2w3PRgduCwITDyPPFxcXj1wzr602axfb5xtX3/2iMKrr9JXPvtZsrkIvotvwnvVvLelw1vf/CahEjz04uKCxnHinBNfXCScnJzavuv7nGIbSzklpq1hrK31/vRkQNPWidnZyQkO04jDWNW2KWfklKAKCAS2mmBAC5CzInECmQqFLSGhSD5mCMA5C0MGxrtjgSmVrpcEAsEcEq6vDlhyrSHdUZdmTYWuU4q4vIq3jLOUK6TmGocODGPriHW7HkA3EnNihBSRkoBQbUf1qMw9TFXN2zYetmnQdCtkslj2O2QRIEc0zsNaRsmKeakkI+cBHwURlQCec0QpEWmJKCVjOTalddydkXN1e6y00Fpn4jgKLypIbEHMmJYJ0+EA5xzmZcH11Q4xZlhvISUjxYBcAN8eGy1v0bUt2rauMMg5Q3IBGYOmbdG1Hs66OigydQy/LBHPzq+w28+w3sG7FiFnhKAQEKwhnKx9paVKgbEem02PvnVwRhHSwiFlaIFvnDtja1+42k93PPs727Vh+/Wv08mf/bO3ZYN+ALrwfjivAuBc5S789Nkz2l9fm91uh3meyVvL77zzdvPghYdtkTCM8+xZ0SigpWSxtjr9JWNB1lTYx1iwyXDFwvUWkhXQiidac0MKYTAEKQTMy4L9YcSy1KarvuBqxeScAxHfOjZWMo4il+MNQRXmyikA2SAZgKGVwK5VuSBcNZjWGnTOV1MPY2C9gQpVHi5XeMq71XOwkGCJlYlGIDTewftaG7eNx9nJFvbhQ+z3I4oslWmWEgqXo3+YwBHQeo/c9Qg5o4z12C65QKWAqE7G6pRPUVJELIoc8+37LaUScZj4qCApWOaIfDRCUa2n1rD29WdlQds4CBk03sO7irbUQY2H87buiGdAUaVV3jNICGQM6iJQICTB4bDAtYRT38JZU5s9U70nWu+wGQYMqx6AwHmPk82AxjGWOWF/ucO0JPRtS+wb07ZNm0I8m5Z4+ni55g+fnKD53OfI5pK/F1bZexrivf3WW2SMobfe+iZN48jX19cIy0IxWN/4pf/1f/Mb7Te++ahhpv5kuxrunNwZ5nni3f6aeXZqfKNt2xIR6rSJDYgMfG+rwcYtaajO4wGFloQIVFHhxSWurveIKaDIMSsfYR3nGgzrDn3b3gYuiOCcgfOuEiVVkCOgzAix1pJ5ziipQLmWIKVUl8ZuaNE6i8UYMFmIKtgw+qGDtwwiC2sMLPtj/SvYxTpNsxaAMJqhQdc1UAH2ywLrWpwMKyzTgn3aYZ4naBWlgo4nRiuKGFrEroOqwBdby5iU0VgPyQqTE3CU4YcUkWNB1qreMES43h0wz3N14SEC28rJbY+YtbEW3tXR9I34k6yFRUVpiBneN2i8Q9NYVP2hQZEMqNwmCRFFzlI9I7zB9mSDszsnWHUtmjEgpSoeaGxTTzXJ2PQrOMsoAsQERAFSYbG2Tf2wmjar7nK16g9QSCkFX//1BV+//LoR+aFyU/PS+0BlH7QXQo6cXFURXF5eclgWklKarus6LRhKSa0zw+bDH/rwS97Ze1nynfHpvBUF900DywYpJpQlQFIdj5rjQKGaG8nRu0ChuY4zQ4hYwoRpXmrtOo4IS0Q5ZlQpgPEWPufb5saYaiVTcWCCFgEsVSWDCnKMWJAxllI9vVJEPI5cq5OMxTBUiTwbV2mGxqBpfa3+hgHW1vFy4QpZGeNhWJBLxvVhwX4OWM0ZuzYhlYxljjhZtVDd4HCYwFxddoAJ4hwYepQklToujhmNb5BL1ZTx8UYnEqRUIUGiWv40R+FpLoLdbkSIinlO9SM0fGSCNej7rqpBHN2Sg1TbWm1xxbXJGLSNvVWaWGvhfANvKxwpxyFKzgXTkpCkMuxWqw7b9QpD1yKlSlttuwYKg1XrsVr3x8GLg2ODcQ4wxuqL97b59GQbdocxrLp21zTuKQF763mxQin2gSgSzs6+CZtz+aCAlQ/gWXLJBd98802+vr4mVWFpGj+g7aXEXkiHkMvq0eN3fIqJX3zx/tY4c29zstqGOfjtekNFC8ZlQpgT5mXBOC1YYnVNNMdjMRdBydUobloCwly75MN4E7gLsgosLGAZ1nq03IGbWkcaWw04mAmkOHbQNQMpAzEELKGytEop0KKIqTY5yNWFpmk9YhxuvXS9vck+N9AX0HYtCllwZhAz5pBrvZ0T4hwhTIixgA8TVn2LO6cDNsPqSLOsN0lWBhkLz4rOr+oww41o2w6+bbGMR9m7KthatM7DWMI4B+x3B0gp2Gx6nJysq/0TgP24oF8NePr06kg4T7BGsV2t0DQeKU7IqXzrhDOVnF/ZXAZsCM5WZUbfdmBra6PJgpwTiiiMZTAZ3KGKoRcQQsyY5rp/48WXXsTJybrykZcE46yuViucbAe0bYOYirpxKkUlgXOyRKlt3BJymnLOS9s0AcRRlZewVJHAP/kn/4RsqlQzej9h5XvUu7dzwCRiyDD5xhMB3EnTiJQmMzcscKrSTPPSHK5/wzx99th86LVX1/fvv7AdhpXLRbjkgrhEHA4Trg8jwhKAI/uLKqflCNlUzHOeRozThIvLa8zHAJbjIMK5unS5aRWWDbKr/rfr1XCUvdRGo5RcUYdcm4+YAkqWaqJ35PlqqcdvZbAQljBhHCc0bYu+7dD2LYpklJxQSoR1jK5rYI1WLgRbmCzYH2vyFAXKDG8Vw+ARlwXnKWK3P6CxDlIyBJWiWcWkDq4xaImO7y3Be4NLBdKhICwBVhSZCUvKiCGDDKFretw5u4O7d09qUxci2q7D6fYE4zRDpDaTKS5wzmNZFoTgq+0UuA4iYjh+2NWARVFZei0TXNtitR7Qe48iBWGuhHw2VbKPIz0TqGN4wxFdP6BvPeISKtCOogWElALm2epuv2gpFWGKKTPVZYkZqqmxNjStDd7SEmK63o2Hy3d+7de43Kmje5tLoffhLOh7kHBuieeP3n6bVIRiiHz3zp1mmaamZOOg1LawbVhMJ/PcGrYtN7xerYbT05PTe03TdNM40019lkJGzAEiR2phzhCtx3/KETmmislOC6Z5xDyOuLy8wsVFlZ2zYbTeIPsMLfXvmmPzcDg49I1DNwwwIKQimKbl+O8L0tEQ+ubt32C1zIy2cbd2S6pVc2YJ9WekhGINMhFSZkxzAPMOxno4Z8HkMC3VW3eaZsSsYBYEsjhMQNN4DL1Hpw3UmooI5AyFrcYfrYJDRM6hSuTlqJ4YRyzTiHGcQQxc7wHJBTEHzEt1sHzy+J06ZGkcmCy22wHOWaSQkSWBUFEUKRHeWXi3xWoYsISItx49Pkrx+Uh2F4QYj8bUwPn5ZUWB1lVBURRHklBFckqu4+glFISUEGOB2e9xdXWFoas3vbGGtJDudgcsSyBrHcAEAiwZUwBcNt6eWzbkrb0WlGdTWt6+vjy8Ne73F9fX12THEc45su9a7qbfg/FzndaWYiCCk+2Gc/Q2W240LF1S06QY3LLMzX53cEWKt4ZWxvitMWZVUqYiBTlnTTFTSEFLKfCGSBjIAsi3QUD5GMAL5mmuUM844nAYMU8jrDVA3xxfYX2ZwVlYZozTiHMmdKHiwWEJUKlkFjkiC1mAxlaiNhPBOg/vGXL82VIqFmydR9NU1EPFQImQVaFLQs47HMb56L/rEUtGDIoCgmHCdtNUbLRkgA2GvkXjGc4CKQeM04KYCpgsjGWAt1gPDlCpFMxSMI57XF48wzhNGJcF4xjrJCxUudEyjYAymqYe68NqjdXQ4vy8vXW9YWYwHa0kb4jjhrCfJ3jX4N4Ld3F1scP19Q4hBixzhLGEYWhvzfrCDFxrAqSSg2rE1LJsdz1hjhFLrPClFiCEArYWfV9tBLbbFTargQCG8x7bkw0McxKVicllsgidt9FYG8Zl+UqY97+y5PjOuN8/vnq6D1elwB4O9KVpIpu/vWz4oJLh28qLkjN1bUskYqSA2kKYQJjmSecx8DwfyuFwkFyk3DlZ2aHvOmOsm2pTpyparyCYGluBf9t4hCXgcDhUfisYpW7/qmMJKTWDlARFqePRrJgCwNbBoa3b1wCAq6PLzNNxbl9xzqatnXUugDWEtuVbgSRzbXiMtbDcQ46ZWI+MKmsJkCpaxFHyk1LBMmXYRrFeWzg6WpxVHju8sxhaX2tirRDdat3BM2NaIq52I87P90eHx8qOFxGExUPjgiXV0+dwmLGkiLAsSPOCFGbEZUHJETlUPZ73QMWyFCUnzDMhp7o5s/JCvuUPLFKVJW3b1u1GChz2B1xcXOBwWJBSwBLqgu8UQ6WTNh7LXNlgCqoTzqzH0q4g5MrTYDH1zWvliFTCVYBmYNwppCR0bacgiiGGbIxLqrKUEidAdwfQedc2TzXHr13vrt4Zd4enynnc7fYlX16CvQe+/nU8n3n1A2red0/c6v5Z57hvG708f4SmcWRMRmssJhxUBGSsUUDJO6+rfhBnTRE1JeYCgLRrO3S9QcoRJQtsLkSopG7DFqIFLlkwGSgUciT+kyFY18C66yq7cYxhNeDs5ARkqi9tFU9SVcc6i67v4Z2tgWntkZtbar3JDC6EWKpw04BAhtAYD2stQiwQvXFtPBK/AYgyYgHYWLRdg9W6sqzMFLDMS9WBETDOM6YUMfgWpmEsc8QCxf4w4fHjK4xLgLWMeYkoCjx+eommqahBnbBFxBgQQqzUzqND5dC1yFIQYqojZqqbMNu2hW+boxynoAhQqCCEjBhTHbmLYplnEAFt38EbiyUsuD6MyKFq4kopiIERbK1nLVnYhmGZbxXIN1Z3Rw9sqNYxe+V7GHgPeMfwtpZybLSikColpzSFJcxNAxHR3TTPz6aQ9jHF85X377z44t2wXQ0c4qTnj8Y8z9fZWqtvvvkmvvzlL8Ombw0p+D1Um/QezwGAcik4v7wgZwy99PBE50mgmpFUtU+d5CyqWgr7JltnllTylEuZvXNzzkKO4K3zbJxDjJZiiAAlNGihShj6avmZUsCwKjjJpzjZjlimGeM81tpqXlByQZYE5xtYU1W7KUuFgHwL59s62WobeOuqnMVWnDYbCy0WWQUFAn+EmuQ4Ng3VbhEsNzziSlJJuTZ9h3FBWBJWqxVS3gAS8M4016NzXhBjwp3TU/i2x7hEnG43eOXhPRjWo+xIcPfeBqcCTIcqLVpigh6vsrMGMTH2U0RaFrAFuqFDp9XfDCpQqpyOaidVUQuy9taoQK2Fv+EzGwKK1NIBBSoG07Rgf13d0tMRZalDDQITqjI5Fjg2EAvEpTr6MAmULAwUxHX4cBPGOSc477HarLFaDWjM0QHINboaWrRtI1IoBjGzKi5DDHNO+SKE8NZ02L8zLnKYnTlsN+1TaLnIOe+W+XrZ7w9xmqbyta99TZZl0ZvM+34LTN5vTao+fOUVffboHWqahpbFmBAmFutUdColZSUSYcOSU0kx5XG3Gy/6vn+yWQ3WW5NFMBCTNxDrrT0axaiKgqxTxBTBTNQ0HVxTT6GzkxPMMWE6jNV8riQ03lWmk6m82N31hCUENG0DwxWjXPUd2rZHkVAb3uNbMiwAe0DqhycQhKTIqQ46Lq6vsN/vcedkC+sMYqoE7psLE0LANM14/Ogbx2YmwjiD9rgrQhXoVisMwwrDsMX9+3chJWA1tFBUmbpIVTATGI2tU0ZrLBrvsBoaNPMCAXB1UX0cjDl6l/mql6PjLgsmB2u/BQUK6oTNHNUVZBltvuF71NrGeou28YhzwLRMFRUpGUupAdm3LU63m/palwWWLayvMqxy7EssM4TrCN1bA3bVkKTxDYZuwLpboW0bdH2rm/UW1rCGlJdlyZfe0Dve4lkWjdbi2hI9Xg7pdQm7J9Oku69+9WJu+m7KY5mvdtfL1UUKj6purVIin0Mb3muyRu+nIi4iEFGyxnDTK8VgMO6udV4yZ0CcczkJClRzUZ6XXC6fnV9+c1nCshr6+9bymbft1lrTOoAnKNOiZAkmU60oQ0jIuVDjDVzXQo4ss7bvwdFi6D1WQ49c8nEDusXJNmOeKisq5oy28Tg5Pas1ckEdUojWYUfMKBIxL+HWKfLZ0yeY5hmr1RqSM6Z5xmF3BWs9utbd4BLI6WhE4hxKiri+ukKKGdtNjwBF27Rwzh7doAMsBZS4x6N3vlEpgNstGtfgcn+AIXPEZi2qKksBJOQEbLoGOFkBmrHbjchF4Gylb1rrb2EtZiCLgLOBNQW26WtNKlqzIgN0VFirFBQhwPsj+kCYUwZxRkGth6EM3/S4c3oX2+0AawgEU4npR38HgtT6VxmlpBrM1h0po6Rt3ylbo847HYYB/dALVCcBduNhfHu3232zSLmybJdc8vX5xeXbu93hKVveg3giLmN8ludky5JTivP8JHf7fT7K5NWmXPABZiLvi/emXGCd091OyRohY42u2xaNoXJNkFKyiI5SRSMyS5Gr3WHC9W6/a9vm+u7Z6cPVZoumaWi325uUAkoRW7RI0cIGhrgl08KgHxyYqviRQwATqBTSZZlpWSKIULOtrTVtSAHTOEKKYDwIpCzo+xWYDNrG47CM+MZb7yDMC5gqZBdDwJMnj/H48WOEGLDqVzg5O8ODF+8fO+nrOpnyFvvrPWLKOIxjJc4vC/rWw23XaNsGEBy9I/oqOyJgmkeM8wGtbzD0HeJSSStt16N1BjnNkFy3/li2MNYghxn73TVEFdveYdttq2WraiWkHz+lolU+v8QE2xk0zlXSvlQFtT36slWYKCNlgBWw1mPlHbabEwzDGteHA1JUWF8z6907p3j1lRex6pujaLPg6mqP3W4Ctwar1aCVcB9lnqOkFCVLziGm5NtWYiqpcaIgSIgh6PX5LMoxzOHyenf1+OLy6tk4jYcYw2F/ODybp3B+eu/OvOlWC1s3O6WFnImUJcZhlb761f8hHw6H8vbbb8sR5/1Ncxtqwyal4nu6w/mzSMxgKdGICDujZIkIXavWe80hlWlZxq5tbBGVw7QomSvjvOuGVU8o4nMubklZoVKctcaQsrVWvXd1u9TRnKOxjpawqPdWx3GuGPC8IKeFIhmEHEHC8I1HQsK0n3FRKqk65YKL83O8/c5bePr4KcCEruvBTJiXgKbxuHvvDhRA71s8fOUhXnnlVcRUcDjscH5xCWjBZrvF02fnWA0rMDHCMMCSvaXVVj5xdX28IX/fXE3iOkq93O3ReYewRMS2PZo7WxSRagHPVTnNXJGQruthTPVakEoqrlDec+tIuq7BzXYySQFyREkM1TFvznXVVde2YHvciQGFtR537typVlfM6LrqsbYeBrimumK2jYe1Tr1tkPITnUOQ690ul6FF17ZqrA0x8nwYxwNIQylJw7RcPXsyTvfu3TWvvPTQ134xTY+ePH7n2cXl1eXF5T6mtMwhjgTZd90QSgyR+SRa6xN5n3zH4UxOU3l7lV577TX5h//wHyoAvPTSS7eZ97shDd+BOpw/fcpW14Z1oVKyDUvgpvFMzhlOycCS6Y03oSRrm5ZjztlYK23TKrHSyWYLY+ySUr4uRdsclhZaCrPxzjopVpgByTkbpWpSIxU8IOcbQojYrlcousJ+d03TbDWXTE4FpvHHnsfQ0A/wvn6g0zhidzhAiqIdqqOOsx7eOWy2J9is12gaCwLj7HSL09NTuLbDvAQYAgwBMVQG23q7vvVquDE0qROrAG9dFX6yOUrmq0BUjoJIOhpGzHNdlM2GMQwdnG8qMUbKkcnVVmHp0cvXGHNLnkmx4qdUALCAq6AYKdWVrpYt0FQPcyYGW4a39mhVanDvzgmctdgdxop3pwhCOY7lExrfgY0ihUV3h4msMaqisqQoUlKC5MTMpWk8b7YbtsaUZZmTqoxLiIsyie/cLhe/f3Z+ubRt1790/77LS7gMqTzZHeaLokiitFjn52HVTcMwhLPt6bLabFPTcPR9J03uFXotDx5kvbh4Uf/Mn/kzt9Ifm0vWD1ilivfRtCHHiH5YMO0d9wPpfgdkJvXWSdu2JSfJTOS2zhnb2Ha/P3hv2BCxZWt4s1lZAsJ+f7iY59kDugIweGNX1BunpXDMWcYQs4ha6wid9Yas5ZKLyTlJzplSzgQ2ygCledFChBzjsaMWbbsWIKKQqjujNQ7deg3bdgjLUtdZDSu8cO/eUf5j4LzF0A3U9W3tnC0DbQviqlQoetz5oHU0XXmuBXuzgzEEZ6vK19iqApGS4dRCjAUTwNZWkxBiONdUaOkoKXJHr9sbE+x5maui4zhQYDFgCJqmknSiVmZXEVSWF/i4VKVK+Zmed8kxODlZwRp3XPQS4Z057t3IaNsOXd9W+iPbim23Hfq+1RSLZMmlLb5s1kOMIWayDkPXle1mTUsIi7N9NIZps9mQkIHmwPICmhRiBNPFFCMb78a7d+8FVQ5X+90+xLAYy/HO9k64++CF4o1JbTfEYduWjdlmIoNHj07LvXuP5E/9qT8lP//zPw8A+Lt/9+/qDTHnu5HRvwNt6PpBr3Y70dzmtBxS37fmcjqAshG1onAoOSlWq65tWq+aOsmSI5NZmOD214eL/Tgu47j3YYldtQR1zjqfYkoUY6B5iZRLYiYHYqKDYSEmW7JCtUhMCfO0QFEopUwiWn1lfcOuaUCkJLnoYRwJUi2eNpsNBqn7x86fneMwzTqOE439SDlXiX3nPXIqOoVAfFQWK4DGN5WqqVQ7/1IbMnGAL9WfwB2FhoxqgGeOpCDfGlhTJ1xE5iiYrBxZ7xwUQFaBKVz3veUb29RqhGKMu3Xs4eP6WGfrKZFzhpICXPeueedgLFcXyqNnnGhdzmKPlk3WWhhiLCEAKGqdBwMYhmoICKl6vbhEyTlX4i+0FNFkmFI/rKRpvBIhLSHoYb87GGOSMZTW6zVilnLYL6OKjO3Qx/XQKxvax5j2zGaGYm67bpdE5sY1ebVela7zo8Q0lhCm84s5XTVjato2b09U7p6+Ip/61KfkM5/5jALAkydP1KaS32uKph8ggVcA+NpXv6If+/CHCptOmibGEABHRpMPRhK7LPBlznPIZbEG+6vLK5qWZdCUO7ZmMx12q/1hbJdlWXVNc/d0e8onp+vBu5gPAId5oSVGlCJGpFDJAjbM3llFdRiXFEOZpwXGeW4bz4331LatWa0GNE2DlJKMedSYM8UQtZSCxjtqug6Da9gao/7qGssy4+pqp6JCpQh8tQ+lzWql/XqN1ntyx9JDj/J0w7a63MGACUilwHoPY211oFSFrRRiEKpV0s2OCEjdAcdENVBQ66EcI5ISwpEspEdyfb6VK91MGwF3pDASHydqUsAw8M7DNQ6Nc1DNEKXjgEeRU0IOCTZlFK1jlsNhVBDBsoKPjS8fnTSXJUoIQaZpKn0/aNO4FEqJzphle3IKtgbLEsL5s2fLO4/ePu+7Pp2enhbfdQgF8erZoyfLEq5900zrfign22123iwKGrvVauf6JohgIuZlPoxhGsepadeH6+tDmvoQL8ZR/uQP/EB++5vfLP/xMWhvAreWDbnod1kA+F6DC/7Qhz4EZaNjW/IwsdhGC4mi8S3NVrgp1qgxPYyUw34+XF1f0BJjJ1J8mGNfStyEOQ4KOZmDlFUe2hjz1jeu5wITQuBxHDEvAbkIQUUb71jbBmS9SSnEGBYVVWqdxdA13A5r8tZCC7DfHWR/GGUc95KlcMmi4UjiLqKsAxExade3SsawaiHNqgq93RNR9bUAmBVUG5xq1lflGWwcpCRAK5kalmGFIVqdJAm1UL/xDLtBCKo5XqVOMlGV3YejW47U4YzhqhrRG6JQ11bJ0VG/9y3ch5FFj14L+NbqVlc5BzllrQtQaiYPIUOl6DQHDbHqhZa4QHJRa4isdSBDSDEqEcWua0BsNJUs8y4spUhkxhJCVrIO8zLP11fXS4w5QA5zSMvSDhtthi1W65OyXivmeUnjYbwSaGwaH4jN2DbNgYgPAC2zxHFO0xxyDt949Eb65htvpLsvvFDOHz+Sv/H//u/k//MP/r48efLkO/1587cyL7+H4PL9PFL1nbfflqbvsEyzihQqKcE2Da2GFQ2rgSeNbIhzLjIuaTbZWOZGXJyKzSrdUtKlsq4JZt8N/bLarNo7Zycn1tohpmRAzoYsiElUFNYwsQKUtRSNsVhWXQ8DGWPY2oabplouxZQ0pVxinGU6TGmJEcZY49sG/dDDGUNsWI0hzULStB1Z43VJCb5nGMsgYiIRsGUlkar0sNUaRkMEmNVVt0RKsZLklSrKYAyBylE7J0fPW0h1qjyWIJYZxrlbnwrR6mtebU8JdTMFIeSCktNRhs/QG47GUYujWmG+eVoQQt1k6axF33nkvEJKUec5ABCdl6g5V6J4TlmnJUjJWZhI57rOSk5O1mbtPOUMibmUtnHJ2kbBpNM0xxjjzMbmkuL45OKqJIGkEGfvrBDKQTKmPC/jnNmsqSVvygSlSYrMGTmMyzzlnGZj3VRIxta7RYEpTlNcUorXh32ew1Kc9zodDvr2N9/6QCO9m5pX32OSpu8Blz23VdGaGBLYWLHOE/crXtU9Appr+tKskJKLbTen5eWTUzZEZV4WOx4O4eL8etxdXe4t075p2zis+lW/7k/6pu2KqFGlTgBTVhkhFTJcuPWODFua40go1W7SsDVg4VJUY15KTgUhRU0pFmNNOVudashSFNChb6w5CrpSLmBrpLWeaEXspplyLggxIoSI1jt23hOcrWM/IvJNg7ZrAQGVkjGOk+4PUyWxA0eL1LrcugpGC0JMNdRUFeboLMmAVucbkuOmn8Z75RRrtieGgaoQUY4JiRNiznA30BszDJujlWvdX3yYJ8SY1FqLOVhcXu+QYtIsWWOMOs2xlJJBxAoRFSJloqJaBCByjRNiU8ga48nANS4bpqhE2RBL2w2B2E4gqEgeBZzJkDrrprbryjwfrpV0Zutm4xrOAC2H6dJYP3qLqW3aURWBSANAkdXEVLdzl1h9uSTMQVabbZEi5cnbb8vdBw/0H/2Dv//+e9ieY5W9l526vFtwefMXVycn71ZZlFwKP7dX4GYdY0mSVclIVhVyTrrNhs+slX7TS5wXPumHy/Vm+5azbgNQ0zZOXnn54ers7plNIZZDzDZOk/eG18syO3ZEKBkAawhR4xgLsBQocsgFIqohxWANgvUO/WrlpRLYTBGxUHFCsAYkvnHUti2v1lsmEZrmETELWWd11fXaNPbI8KlxycRQVs0ZFHPRJIJclEpJR0ecuuvCewOylrzzysbCsYKMh+Tqq1BSQqGj8wdVi6qUs45LUOt7sqiBaNnCOFe9zyCQVMBW0d6Y6kndKuRsvclSla8r6n4J1ep4KKpSQBAlgvFemAikmlVdabuGVKUkBY1LtptNT0PflsaahQjBWldSLpGmw1UuyDHnXTd4KDtonPe+7YpCHhumiYgWbjvvfMdI8RlbHAzzwoZmYykALratCaJlAZvIxkTbtOUwX0nbdxJC1KYf5M6DB/r0nXc+ePfwu8bD+j0oid8vG3+bvu3dN8TxJrmB1Nm1bSFj4Jp2EkAux1GWGCdn3JPVqn+47rsz7yyrlMUav0olS87zmWvcFv3qbOt5fxhH++g3vtnGZfFt45iYIGp8IZbCvC8lH64OB77TDCcwpEVUVdVJym3T9WtIzqkoqJCBZWMNkfENs0Y21qkahhKrqNI8RxoPz7TvWmqalox11K1X1A4rzVpuTDnocNgjpwhhpsZ7sd6T9y0ZZIVxCCHAKdANgxrrqKgizIe6motJN22HbBqS8UpSUQIVMiJEzJAsR5W0qPYdclENkhFzppCT7MdJjWEUNlRLGBZUnpH0ZiU55wy2ai0LGQvNJbLj3PiecglRBJZ957ntqV9vsqWyKyXvu66TRk0Kqk9zTNFKOxpYA+Pl2c69dLIdfkUgj4zlSbIE3w/e9Rtbwu6b1phIDWdjeCnM2amWDAQBsjUmFqIUc4rtapWn80Wavpdnj97RZ++8o3/nv/5/yHcL3vfjMbxXNqbv4t37XiiFvMfz+mfMYhuftBQ9lJLHOe0t8HjKy6+fX/OWmAYDuNTeebkQxxzCrzlr1wd7+qFHb3z5jf040m7O65JzH7XcNcYP7F3X9EOzJtmT5itjiXw/aIihzGHhLKUpMcXeiPVAOKSQ17b1lqRZSuY4zUTWOGudYd8CBnW9dRQKRTRPMzW58Gq1Nt57Mp1DyxXaz6LUrgZNKYGYyRCBfUNKjjhPImzBAHlA2VCV+gtApJpyAuesTTsQtRvOLUlKBawgYstRFGmZRZQhJUkGqTVJcylC7DmoZtu15Jxjtp6tYUWJyVlXbStyEajEQgbWmMSuUZQwg01umt7M8xiyqIVt+0hW4LvkLS6YdKeKuYAKOffMkBeT8yymcZl8y12zmLYZe4lPhEwqRLld3/GmHzjtce08RxERoT41TqWIlG61iqWUchgRl3BZBCqubfPdlx4WAOX0hRf0Yz/8I991r7DNJdN77Hzl95m66QdYQ+FdAXrzMM/ZRsm7ntcaOWcphMxSlklVrp7tg7f22jW+b43t1bMvCZEEy34pGatugLOPwczctTNlbdTgUFy3ak/vNpuTs7Ut86GMl/uiYuwwmFlFNQaKglXMomlJi8Rx37ZNbKS0ZLshpYhE4Na6tu0H57pWvWEBKYmxhkh1WUbELDymZOeciRcm1zZq2aBte+5Wa9ic1FhHkKyZDBdYFJlEmKjU3QMKQ5SJoNaAnFWBCBQQw1TALsQYUhJma8gqcRZBUslF6wgsLrMwsbKxpRu89cMqgQwRhI3tnHdG83yYhJCMYXXWimiJxrTinI3sGyCZXREJpus65Hmiwla8G5L1PAnNg6UL72ycQricYp6DyNVSyCeRJZMMmbCitqV9Vm/JLtwOmVwDtH00dnBX0TUrr4fOu5KKJC1SCCghZykiSTlKuxryHELOJcvzMfd//N/++e8leIu+h12pvIcH73spKp5//m5fs5tA1Q/4vqMow1HXgUIR0RhTcc6MyzJ7wwrVxKrnZDROavuLMnz8FP7Q9espKQjqIIoogqlZnR6G7dmddnPCHK72Sx6vNEWQb3ryIctibcmZg6jPSiVnSSQSns50cqfla0NExrDPWnIC+YaAokWzKGeQLcylQDWoGE3FxxQopyht15u+ayHGGFHVmLN6MgxVyaScFaRHl+koUmIuylmIjCP2TEW1wDpY56lre05uRcsVp12mpmddimFrGkslhyxshESDYSrEnKEkbrVq0qQLsVdGIdeuO0sqKc37GNPMohmMBObQdC2r4VxMQ5rHi6S6GGeGDL1ShmXfrbnpbCYzvvnk6Zsn275kQYqZ05jidSimmaYp28aYWUvTbDZuv8z9emgWtr0p3KNrehljaS90/T9P++v/jlf5yjemCFByaUocRyEAKWdp2laei0H9buurvn0nxbfsnr7boEI/wEVH34c6qR8war69QUoRKQUkRURApFljIrYmlRCUMj/72htqDF0H/0m3Wvk5s98O3X5ggLTXXGRWiLm8mj989tJm77pNJ5oWNe4gKakaN4KtEhsDbjxM9sb4lMhEgYnE9v/P3psGW3Zd52Frrb33Ge/45tf93utuNNDdaKAJcALFIZREUrIilUNZISSl7IqUuKxSpSqmS3apUpISwQ5pJ7Yli4orkVKOElqiIhEUKYqkSErgAJIgiYkYCaAH9Nxvnu50hj2slR/djTQf32uAgySG0a46dc899/R9fc/+zjrf+tbaa/lgEjBYF4jBVZUd9Yoidd6CQUZBHRUeVDkceFtVXDlLxnBqbSWurtg4r+NihHlltSAJQIBGq40kgl7FGAgVenGKSNnA4WqVosCICpUNygcMRISGQJiUxigBpiRgokPpBi5PdPCoVACsdZwKWqjIKAsiTKQ8xkngshwqYxSLCmhSJmJvQ1izAhUROBBwSsCxUpEgeVARCdKmB1dXkHWZZUMZBBWZkuI0Is1Vvx6u9K4M6qTZxGbeUXXgoYgKDsEyU2oBkne87g71qc8+ksSRthAbQp3qGmPp9zdaUd7K+1vVVMOX67UvAgBwHAePgDxACDIasb1apvSbuv+8IvB+4HEHACA/czfhHz/J8jN3086S/rJHyHi34IXcxLHDHRYdX7LAFGQwdIKIHBABNUJqEgneS82sFBALe6pC1nznm19jPvXIqTxKY2ud90bHSnkH1lqNJgqklOUo8eJSy8q4gMSgtSOjHRmNJKCVj1TayEfMxQC0BjIJl2AaFHjN1ZUURSERqub2Vq0V+KCiLA4mS4IPwTGI8wx8tYGlBGCGwKaqnfKkMQQGEieoY2NQgCOlvGYKHCkTsLYsYoMPFJyAaFLGkGNhFEEbhFkFzxSgx5k5fvsBfuLJJ7mhqEKkyLPUBESoTQ3KOAS2It4DKfBRpknqniIMlcKQRLF4pXocgmURj4hWQLyAigWEkYAEpHCMruLksFL4sCERpYyQilLmyrtgi9p6iz7XkRMVGEshBQRQJLFGgfjCxz79UNTuNpaDDCwFUWyYIYAeFWX3773tB/L/+KGPz5BSz5YlCEDJ4Vo5Ibpa54lvKDf2Elb+xT/6h68IwC91wPzjJ1nedULwWgUd2NHxcq98h5erZQZ7tHzdWdhE8OoyElEAKngPdQgIiB5DAJ2mDCKqEeP5P3/gQdXYf7SNvF4JEZA2lr2F4L2QSZkFvQg4BgwsWKMIIyiHQDXEecv4QV+iyGd5ntdVf9sztpM4Bg9JxwYeeu+DB0GwId4qqZ2Ecjlv6kAmEyQtkORtDdvbOkoQQZiD9UAKapVlDVIlSeXqykttLQcNwiFoIDElNtMGV6VnYeslEEsgxRoE0DMEQUQlLAkAgVIKG2PpU08/vRYpsYQopJWgpoqMVhCkBBV5AF8ziwdEsqo9Z+ziIiB5QCRltCjkwgE4BHGMaFHYg0IApMCoKHh0G1V0Z9o2d8TelTUzc90XYQ5rIz7hRu6sBK+cs+AgCABbo1UoDfajLJapTvfrg63Ntc5ERy8ubtbsC4EyKJ1QMtZuXvmP9398SYk9NxwORRvjAUjCN1IE/nat7je1b/3QMygAAD953OMrAC3swl93k8l2A3e4wXHDb6ISiIBay/VzKmsVAEi7UZ/LkmSpbLfuGS3VvvaMrFh8CHZUuhyzrhqORqKTZMuVw4G1de2cC0GkRgRb6/YRZYpHI0SbNZrd4WizZweh+6YTx/Ch81sdRKwFwAEAedDKJDHZUaGbWleoIkQJzGb8FgjlKplYeW8dIjonJjVJLrW3oFHXJUTdJtCQhFkEtGcRS40GS7nmPIu3zoM4Njp2IEKBOSApQoLAjDoIGkzaeR7zKe+9FZBMax0IYUikDbOrBMGzDxaY68CigmnuHw7lZFPXfQkScWC0PtSOvQcQi4Eca22ZBYWQAUiXjglU4yApAwNoH2+E7UelLtyo8A0y3aQ34mkV7BrqGkzinKWsYQj6GrGOjSpNFIFJTC0ABKGuoR5Irx4l43la7Z8ZvzBYfuLM1Tml6xaWb5jn73h8Q3PAv3vM4t89ZjFcLTghN2xwrZ8a3vD++rGd517fdp4LO87lHefzLvvhhmOhqGs7KIoKr3z1q0MnrmIKgpoZQOpAHZ3kphiVUSh6a7bqb1lXFkHYslzt6RdU425BKAV5FEVmCIIDE+Pi5x59YoBKm1qU9swVgxQ1qyhptclDoknpAknVAaMQTHM8QIQ2IDOg84KVY0OvuesEOCZwTExR4msvIiK1iFjWeXzrsePaBQFb1baqa2etc957xxwse1cGXw2Dc6UgOy8qXlg4CJxNNSzEuF1RhoSVoPRBw8B5N/C+Hgb2ZWBfVZQ1J/bfAqp76+HSIQFSDSDOeQm1Y/ZBArPUIGIDgguBK+e93Sxwvj17YP/YzBw0Z4+9xjNXNkA1KGQOtElLKzNVXTfquk6srXXQraMO0VprawCsEdB6ZhuQ6qoq7Nb2QBWlfltZ1kaRcjvmNFyb/3ADDmAHxiAwf3uW92MvRC9Z2B+/rcRvYYXFbrow75LgIzsUDdhBI2SHNaZrqVsAAFRVVXDOeQpEomIKmGijIhFQYj02OmmaFBvDZDRUjm1ZuLquhL0Ogr6w2JZYj1U+PWjC9kkFUgVfDCKUojF9bO6OO4/CU0/2unVv6bILqmnyHO45cdR9bmOFGVVNxkQes4VGdwL6o/XJ2vZ66IFZxBodeo889qhvJlFdWUSdZmJDCblAFQBY6v766skHN7nqB29LsNaiAgwqckzGSQjVCAOiKIIQfGB22ysvPrZdr19cC9nUZKxiqZ1w4DDiIJ5d1RevGSEEZvbKjS4PVl409WjLiYWYgrjgGZx3bK1FRcSkyTGhrZ0YV/V7yBs+Ar9RF70x1IeOge09UHvvlHJaIIa5uf360qmvd62V7bKyRVnVTprxa9D3vySAnpTySpvAQIEFOXgXSptMJOPNfLtfTh6ah5VwVQ2Q62vOdvg+e/pTU1NT8MuvoH/lnl3fd7kDZI9uQXyTpJ7dMtV2yma44wfu1i42XF16xB68F1I5kYkjMjkJRUpQVywY6zhV3otZ77u7UnRfcs5WAKAZ0Y+COUpKg4/bd/No80kkqIOrhgygQv/iU8+/oPrDC489yyIKgWsl9fKXH3miC1IvE+lCRGIl1WUpt5Oyt7KOiAmJA2DwmfarOlScRHFeuHhq7sBhuXL6WQgABV+tXMXF5sXRwDUW2Ptt51kxQjAMgQPb4HxR+HhfO/WL4hlYwA+Xz6zVPpAxrQ4ZHF5tZxuGwCH44IurFb/YAlEILI3lU08ut2cPTFQessj7LYDIOu+dD6AEhbULPlDkz27TwalEPynWgQ2uHJ1/5FNJ6H11a/nMi1qhUwKsxF08+/zzXQh2CxA0s0Q2UDuKov08IvYhMJARAIQAWpiIAzNbVpPtNG8U20WXlFoKzLIHUOEmx789y/sKwEs3ccZertXVjbov7FIDDW+wxrKHvKavJgVFAjpDiHINOoKARiEpODg/Hwarq1pHUVQO+g1gXoGrnRwCNcbn8/EZKKP4jnp0kUmksi54wmBD4FF58emnHIcaAFRg1hO5utzvby+KroaAjQYDlK7olcPlS18f9KpbkiytFAYmZhsEmBE8kghKJaee/HLeabUCi5QsAkEEgkdWOkZXkQBgxSCBRSyLeBsIVJJJ6QaYipQC6D1LzQxEWbvzluOz/S8++rRyPlSBQdWOg4X2wRi3TmJgW9qgKErV2MSUrJSFrsqKODd1YCmvdjmFKhBUFWOUTu0fH66eipWHsi5t6q2DqrbGOQcM5I2ANDI41UgI1qEeMKo2orJRY6xz+OABXLqi7uCty58HFQtGGbKO0AuhCyAieirO8my0tjKuleLAHHbMZ9jxdP2OALwneDkwfPZiW9620Hu5nIbdLCvvCHZ8Q17DLrrw9ffq2g/UO0j99b/rEUmLIANFDBQBaoOkowDBnv3yA38hrXYz6KR5fLQBbeW8R6VE0PhQ9z5oktvGgetzFaiKGaWm8buMW/saC9UhsA+eKxHUCGLES40iPliu2UMUAlkfQvDOR2RikMDMGGqBUAkggw8OBTDVvu+l7yLdaATPEpQgIELpSGXNjIuhEiLZAoSAAIIIUgdK87hBZTlU3oWBGi5dlhBGonQe5Y34Lx96tNfJ4v4whIpDiGuLmWkmxo6iRFE1QJChG21Vl8+cUna4diWL/FkZP7FPWHpXCztwLQLlsIJ0fGxm/9b557KUa1dXvsmBsS5r9JYRUUIQcBGAajSyTaV0DwhHJooE6uGl1ZXlyzS49ChS7ICMCGollAig5sI3ZlsTk+19cwuwfeWSqmtHfL248jeC9GWdtv/8n/4yHv6Nlwf0nuD97MW2/OD8Ft7Qa1v2yHXAPVIoZQ+6EHYA/vpxteOOvBHc6iVJ7WrDN0fsHXCoAWMNSHUWjZ6xduukc7f9VGbS2AONMxhCYMeopSq2Lyy+8OX70khloo0fVS7Raa6t7aWMWDGAD8Ili8RXW50Ftt4H6zy7UFcc6kHw1jrGPM4bll1VE/pt8DBgEQIEJwDEAHUQtkFYB/ZebOEgImcDjbfTBoCKGRX2UNgCIQXGFCjumLQBwy2lbOAyAhEPfiMZW2j/V+94HfzRJzfWcyk3lpek9oFDHWg8idKkGOpWwuGK5xAglBujzcvWKL9sa6yJVB3A9REVA3AAhHJYhX2zY+Pzw7KINZQqeJsHZlPV1jphpVgHQhZqzc5ladwnFVYIlEqy1CSNDIYXnno+60wigzAqLUgqACphJI5x83x/VT/6whN0PNV4PkuMD8K7gXZn1uI3gfRPf/PfCsC//tbUhp3jwUtdefBSV5gZmBmvvV7fv/5erm277dMNx/iG43jD8Z3bNSf1pfP5hveBhTnY0vqqXxQby4yhHoqvah+882gUaZO86titFOWtyELSYIwgKCOgGwQmVWQyARWFsvZZlDWiwLrBAjYAjEIIlkOoveNQW0+utlFtHdTWW7t1ZaUebW0wqJA0OxZVVBKpTRHog0gRRAoEqECkZOZREKys86Nqe3m1XDu/qPNuPjG9zybNtmfRtQj3iGDgmShpjdGBAwvOZC2xgUBEjYIP/XLt1Nf+jw9/5P0wWD2DgHVwwZeVTwmTxi3zs5pARz6QcAAnIkzghswQHIAFhVUIMALwQwHol1bYjO/v6Lydq7TdravaBM8pMGbB+yQEUk4ZYAHPpvG6LEkqUrihMKxQEm1RnJUqQqs1+OBtUOKdkVAzO8+AgZk5xeWvDVdP/3knGXx1eeni2i5zex0/4YZ92IEZ+M/+yS/hd0QbAADePLuGDy1NCv+/ZVxgj8T13Swx7LCkO2nEzqyzsEMz3u3RgsDspRpIXWMTdOcN5fbmExDqTV95p2Iz0Aovff7BLylbF1dQ6zKISGBkJvIE5AVRA4Ita59OHzqqB+urXc+4LoIueKkFBEIIycbqqq1sbVgYrfUBxBei44g9cZTmrh4OHAptC/sRAGbsxTOAEZFSmKvAXAQf6sraGsFiNtluLF04sxqGG5dBiisiiEEgjYmXNwf96IXnnhvWg7XLjX0Hmgw8YuYhoMjmhWdO5vOHuoCgA4cg3tZ12R889cTTwbtizYCtBNEhQIGAHgDKtHvggEbqQwh1EPIiIZRWN1sHbpv80YMRLLW6d482aUUjA+HVFaFEGlHFhDoDweitWsFHA4bKKAgUaQWkkQUcIkqwpVXs6lRJLcFXIKz5KkhYw+bKhUubcOHSi7BLEAJ2+Dc75xi/pfDwzT58aGlSbnwFAHjjzCru4ajtFZDYLaR8HcxhBwfeCfIbs9BeoiDiKqkhb7Q6zbQsyiQh6xw5Nqaj2lNTS6HwFbrEjrZCLm4bXAhsq9KScqFBaWAJ7tLi2Yf4yuX9SqoV0o0+AzhBtsGjDgGgX4y8BExII4mIDUGsHrvlB8WtbCplahUl4qsRBOASmE0QdihUMqINIqUgxl7A+hBKAACTNg+p/sWnIuPOjZgrBoJekR050IVzUi09UtTrKUm1jVH7Z4D7XxDg0fV+VAogAYbEORHnXBRsNaz96pZSsiKGalS6EISNEDBTmntJe/qHEekhJ57BISIAZ0ZW1x751Kceb0rut1f7icYeg9KElCgdiU6SoOIusGnNItH+lX55CzI/5QGEkCxppQkpKFJY1ZYl1FaCrUOwIkSOr3eR+ca5gz2k0p0G8Bsctz//X973igBM30GAA/ewkju5L++R/wA7PNCd3CjseOVr+144BAHdidMsdk6aRMDAykPcRNTGUBRFaOKmjrMOqCxx3lFRDPxoYyMOvh6CqweaN5+NeOnTSraeBdIWkSoAsILiEMACqIBEVhFYJO0lah3Qefftad6ERnfcZu1xDB5j71mcD8gMvLG1PiwGg20BqETQAmIFACWqGJGiFJN2FxmsMATrCOPphXYdCBDCNkm1qOJWqpLWMUBVAkAhIqUAVIDKgWAQRA5BjAhmzKwYRLOIJ22KAFCYqUOHrOBIZ53XEorzAdA5iXwAghBkKq9fPPXU049MTE23lclEa3UBic6ZvLGBaT6Kmk1Bk75W6Qh6Tr3mmsYekHQQJFZKhyAILxaTP/zwE49sffSBz5WAyiHqncDdyznbzQrzt6s2vGLwvnFmFXexunyTPAfYZU2c7EHgdz5i/I5jfgeIWUCPmzjJreP9wMjaQEAiBlJka1sRkorSNFMmzZ1jE2wYVya7Z9gfNsEFx4QOACwA1ADkAMkhQKWJRqjUUCvYIIWrqGhDa9U36dibtI4y7zxtra2tjPrbfQK7FgLq2vp4WENjszeohtZaEaxR6RIQCwAoWvtP3NGd2QemM7NPBFkEQ+koz2bm50oLBAAlAJTtuRN3Ts4dNCodmwWAChBLEbQI6DxLQCEBufqYFyQjQNKYOHgIQFW9WutX33X3kZI6nam5A61eiG4NdYiDDw0bOOUAiCIh1kanefs4U2KI+LzReDptjq+YvN2PorbLx+cO7Z+bB9OePHLtujsACkCGicifXR6OH7xl4U0bdvz2uDP3I/1ePX61Xs9LWAg7QHvjBjtSZuVlsg+/O+D9yvKU3Pi64z8ie+Q/8C53muyi5/IuETbe5e68wRpTjAjKpEneG+GUMDMH5zRxTRRKpcAq1EGbCIUwRoznk0ar6zxMMWqWAO7a5FhU2iGpkkXVAbBQBjdJ07JWuEiIqzrrRJ352090ZhagOzvf3jz/9KOaqsdFvPVO0rLicZtO31Nx1BIgYFEWEK/dGFAPFp/5nK37nzDl2ue9Z/EedMWq1ZieOzSsOWfmSoSq0fqZB8rR1ke87Z9mgApRWUblmIy3pjklSntUuialRkhUIqkqbk2fEK3t0JvG0WPHXr89sMn6i1/7Z7rsnfde2tbxWPChaV2IgidEHR9XcTaXNscNmLgkHRbjZmvLYDYUozz64neLIH8y00z/z+uge/TU1hsBKGyVYLZq+IFWq/GDTuI3xFnerCo7CahuBKrc5EnMe2ACvlXK8C3Thq8sT8kbZ1bxK8tTcu2PyE3Wt+0VyLjZ624g5x0AZ4+tREexaU3PSWd6PvFCHfLKs7d1qnCItlon79YRfY8UOURCUno2TtNWYJzGyAQE8hzCVQCTckDKA3jbnrl1mgWGpMOmVryuVNiMub6gKHwwyvPHteYHIxidJYTCM5AIpDbAZDY+c7RkPSuUalKaGU0N2pQAUARX9c996Q/fL8PVRWah2kGrNXfr/GvmG1k8uTBeOoNMWFe9tc31c1/7rIC2INqKkAWtAyilPCWHMIqrJE03lFJXlFZXBiFpRo3uq8ra6ze+6S23HJ3rRj/6I2971XNPPr7y5YcfOisMTRHsCmObRTQHJ1HenLjaC3l0LpLhZQXUV8aMvK5Hti4K5wa9evHZ33zoM+//aDBG1sok6Y535td7w2x523baY53jcd483MiS246/6lVj5XA02V87t7FDBv2mOduD8/7VRNhezgL/+H/7brwO5l0iZHiTUqkvl4G209nbGdRgLf1hbdvPLZ45Gfv+NjdiPrmiPZt6WCUgg+3ltTc1x/MveBYjKIatyzVhRkqBUiqzlYwBwNb17x1tLq67oueRyOt8+gcJXvwP6ur6c3KApDUmwxe/8AeXHlv7PQBAYdQAWIlowxgpifKJqNFcEJ1OiKEMpdoC1A6EKgCohBlFKKrruq5trTVCKC6eOv3CQ1/4lNq+/EKcSD8EBEFNDrSQEAtiYKUEMKF+6SuTmlt1lhVpo7lG/Y11EF/nWff1JskmjYbeo1998HNHZ5vJ5z7z6U+O63ozCM2AQlIMChAVAREKBjJ6H2kD7e4YDauLJXNNTFjX/U0boBpLYbp0SinLKSoe8FLZft1d3eZr1jaGj7sAG2mz3b7j1gV1/vlTG49/6aElCfXJ1ZMPDXcBrOyyJEz2wAb8ldKGvazwL/7K++QXf+V9O73Hve6qvWLdfJPczuuf+RsDHDFfery3eOpj9eDU72+tn1lXtWWCsq7LKoqTNJS9bcejwSq7an176cJSoz2GzfEp2xibjHzADqpwnTbUxcbFnit7IwDwKs5/AilYFqlYpFQipTKmWh2p1jUaYInYojK1NjTyEEm+78CkaXVg7PDRu8sQdUArh0o5QGUBoNJaVwRgz1+8uDYcFbUAYm7c2pXnn/rC/k56WVwUGBV4McKiMQBh0KkwRoLKwHZlPaCeSbLxRtrMt3RkLhPRpcPH7+J3vP4O0I32vrlGefqDf/rRP5iN3WkkqEHpQpHZVsasEdEWajXQ+Vhk4sYcKQ06bR0HAA6KgvfEtpQxpfJ3DEejudr5LGAcbZTtxszs1ELeat5VWndHu5X0JzN9upuoL6/3yycH25f/KOZLT+9iYfeii3gT+exbogzfqdrwkhX+nX/5btzF8dpLJsGbeJ5wE6cOd5D/EPHKEsnVrsHKGOeGyg+HVTPKMm0LTly1tY2DXg/EP+Wdu1yXdtFV1XqWqLNBwC0VjQ6HwBx04BCCahx8mzLRvrh7+NZrN0oAAHd+3Y/DodfduzjKJgHAeiLrq/4meLtYoS5btxwfv/vOo9A9fMetlZMMVVIhkBdS5UuAN7EXhRUiFaRwRIRFMzWrQuiYMFhKxKuYbCDyQkrQEKJmrY1P4nyBSEGcdV+dx9lQUdhWOmyuPvvx//2LTz//ixzccwBQTyRhGVKw7YU7ppD0JiXqglHqlCJ9QRnaSLqTko1NmruOHIRGd+YYAAQJyjEiMCbTSd7susCHSsttivK0FN2emJk59NZX3z4VJzoXD6G3uvmH733fH/yGspsPNtVWbxfQ8k2kMXkFBR3/esB7fdxgfW8GWL6Jg3ezf7vTY93ts6tl3qOK+8NyJonTNgNOU+iVLOVA7Nbp4daVj1x+5uEHOpH784mMlheLxnj34PGfXypak0LIKIa787f/xPT+AzR92+tOXPWywZVewXqJ883p2R8bOj0BABa9r+Pm9Dy4asNoeT4UxcNHZhqgkvyCAlwkcSNSUYmEAQDqQFQ3pg+NKZKeVrBKqBYRaU3H0dCkaW2NDoAGQUdmedvdzUIJ6xQDoABzQToeR6UgirPjSRoNMcgIgKuT/fHXX3jkT74IqAKH4BHYB6sgaczcQUleUWTWKaJLcYqXtbheuXn6fKbhX57rub8gxb8LAJ6QRK7W/J+KkrQtoPYB0RjFUStvRkV/bf2pF1548beWr6yeEbLbrWh0+Y3T2w/M6ZXNXeZHbpIxtpevg9+O1f2ugfdGEO94z7ukQO6lVMgeF2A3nrybE+ADNjQD5d25g6YzMT1vw+Rc7YZOV4NKufULES097Oz6udX19XJQ6+lOp/mOASf7vU61jXJKGs2P1My/c/4rH34/h+ABwK2W6fT47Sd+BInGddbulF4hKWUpbr3dmlBMxnB6cPrpj//Wv/nd9zz/iQ/+VqT9OfZuVDMzkHIA4MRam3YO3A4kfSJcJc2XNPjl1CQDRdqRZEQmjTzEzXR8YsIFbiBFyWrder33rkRQE4gIJsnv5CDaIxcBVGg0GsozMZD2rHUAjAOnDaVU/BZI8sirVoAoHlofDXz32N9hq+tZXrv/6x/7Nz9/8ZEPPRRcHDwiOFsLIk1oo9sAMBNAdUgljUacoi03P/v5rzx6/2RDPVzVXj9/6Yr0XbpTo99rlcTNlIWXnsDfDnC/6+DdCeBrdGI3VUJ2WGLYI8vsxuCE7CK38I26opJhtbSy+JXls2fOjvr9bY2DSzGzW63JhHLbi3N++fLZ4tnFqrFvdvY/0VrdhjqasdRsiMmTM4/9xWef/tTv/c9CgAHjEIzxI68n0+74m8hEMHPrbW9fqfOpbT8xSTp5F4nUoF1523zn5MJU+qWpdnSykeNaEQh7BdxTBxIAsKRUTUnjmBEZaZRNAt7iSPdUEhfPXxkdhijSyqQp6bibtdoTAtDUSZKqONU1s0tanYWsPQ6N8WlwUfs2BdaXXtO+/bN54TVc/vIHnlCI3hmjdNKZBpC3Y9xqYpJHFjIARSgq+idK25DEiX9JR2+AKCReefGZrSTL2mmra5IsbwPLFEVxiiaJ4yiibrdpVZY1KW60CPNIui2qrtWl2wWwe9FBfiVJOX+j4N0FxLLLcnfYA9RwE1rBu3zXN1GNhC8+sr105s+gvvJBJUW1OMoi2zj4k5u+ba5H6AasprtjzbcgAIx3m3dYzObFNNshyVIbN0yJMbqgsDeI8s7cwQMma7TjRgfysfE3DWp9qDW5/z4iUln7yI+CGCAgBIqMThIDKtdDZ9pHDs3PbW5X5poFt0rrVwWRyoqyYmDoEQoNGIiIjInTKEnbpKPJuNnqskhsojQyJjKImpXCf2+yRjBp9thYxI8IJX5kVXr4wPzCwOpUJHGOdQhRSobifyDCkBD9rIkbGSWpstT4b0iZBafH24rwuqTlvXMiAKJRbdvgzxbDQc8HLoOmTW0MoI5RZa3EqHgsTuIJHSUdlea5pkw3CKHobcNNOOxezvd3bdBfJXB3cuFr+3wTKiC73MF8E2llNw4sMS8taxlYAJCtOpqYnp147UYdT1y32tarybzReLOKYsjS6DbR0X6TZF2KWk1l0ryiVkNMy/RD0hw/cPhg3JmA1x8ag2xiepJRz45Nzby+ObkPugvHflIwEqSYTBxFUZKmcZLGddBjB/dN3Lq+2U8CxZ7MWCzMB9PJ2w9ftN07xRmvvFgHEYLSiZBp6zjpCJlunOVtX5UFkVJJdzyvApkLz37hC4998neOPvmZP/gvvfdQYxaPfNKZ3zd1fOjiVog8MykgMrrRmfx7jfEZGJue/wmtda7i1Og4/y9IG3DY/IeRMS8FfChJrBNwDOBXerYx3Fx/uNltfTHS0RoSloAoWmEaZVkrjdNunMVdY+IUA+qSJmgP/wR2MTS7av43xAu+tyzvzbjwLjIY7ALK3ZYbwU0ct53feRWoQU018vQtlVcTAMC2KgVRwGQ5JM0OZI3GfiI1Hqdp00RZEyjr9Kro73idtzot3bvy3NefGG/ERaoRMMpOiWDDNJpeZ811iNLPi9ZeRTqYKJY0igOShixrzGVpdPD22267Z2sUN+Lu3HFAiuLW1KujLNcFCQQVU+kl1cZ0AqgZpXXTB26rJJl2Kp4sahfy8YmZUU0JgibRzYhV3hiUoVFjY2J+bv41eRIvzC/Mv2p7EEfEGaJJqDU9/+TcwgHIp/adNUmm2bqDOs2nSGkgk/6MiNhrtIFlc0M0k7+0VnSmZsaOb9f2LCg5BQIXMcA6ANg0SimJozRJkzyJ4ixKk5SyWMUE0J+akpsk4MAueSwCALIjSgvf0+C9DuDrktoNuvBedR5wl6ScvUKQvEN1eIkjnx80kvGJ7lFNeCRvZPNXRhlJ4MCCodHqyOtu2w9o0qUsTYYmSsVEcVQENT83P/PmEuKFOGuRHWw+96Hf+M1/9JefeOBfPPbBD/yPWZ6FUTFwLzzxxecffOAvHxKCSoGqNdEWI6ytbQzNG+469iZmyfdPj5/Y9nGzO3/k6P79c9SeOXBi2B8NtW44howqphgAmypK3zCq3EzU6U6YLE/Tien9m5sjTjud20cWOxXlClWWqKjRfvriFVsFs+/E7bfeHqcZveHuY2/YcPm4j2MGjP3SlXP/6tSZ0//61AvPfdlozVHWPZa0xiFpjUHU6Bz48AOfXAWA8Nja5A9HSeovVWiivPHGVjP9gaWV7Y637mxd1uecq1aR1NBEkY3jyKex8UkSB5PGHjAVIL0zfM+7+Ct70UD4bgD4rwW8O0B7oy4sLyOLwctIZLsB96WgxmYVT87um3yzThLYNz12z1qZTsR57knw/OqFy798+sVL7z9/dvHjE93WaaWoR1rZsgq3tZrZ61DpN3mMs1v2tV8MAnL62ec+PD3dvthuNxJlTJTm2R01627fmhCYB7a262ztytp2QQtzM3enWZ6Md1pHa44bJx/7zH/o1e5XEOS3Zif1YyHuKpu2snNr/VsAZSoxcEtZhqnugVvnXnVgAsaPnjiCze5slCR3eqZpyto56ri9MXT36CibBDKzCwcWDh2ZbUWHbjl0wokeK0MOXkcekQYbq4vPZVlmysrXaaPxqShv9vLOOGSdyYfA9usXttrp/MLswec2O2l/qNozs5N3Jo3WLUaTWrq8uOWKYqUu/BaTHaGCvtF6TSu9TKTWtaJRrHS9NgoBjh8PLxP2/QbQfmV5Sm6Iyn7HQ/9104ZdKMSeYL+JFow341LXz7FBdcemp1/3w689Bh8fjE7Y04ttALgwsdD/+rPPvbD43Mlz00ePzBYIkNog2vrQTNM4ytud2W5/dHh9Y9TYEkhm90/No7ivA0WtRpZMHZzbF11aWs7JRI2RjbLHzi/3tRBTIiGIGts/Pzc7nWscjaYmVGQWQMdPPfTFD/174yoVRzO5xyQvi9GRdit+tYn1PAK340id57XFi1F/go9gcWnt8NEjiAhzR25963BjbbPVTG2SqAljjIx1mvXJk6efOzoR89dPXXwkSdM1lUSJcxQq47YGvbo7MzeZryxvDGcm80vYGyy4OL+rOvVnX+lbAwMfv+HoZPstFy6Yv0AQydvt7vHD8+rUyXPxhcur9XyrGNmxFrbKyHEWpK7qYHJOxLPVKt0O0Xo1mU/zxv0fBLj1NtjFqvJ1gF63sDcC9rtFGzR8D45XAPBvAvWOKB8AgBDKpaaiPwvWbS+vDz+CABcBgKsvfEFe9XM/t0GjRr+yceSpitlGalDUwSRJeMtdt6mPbw+SemlLBmU5fmL/7BtPnrq0fvBAe02ZiF9366w5fWHpQaPMJiXZD1mLj/tE92hoq1FRb66srC7ecmxubnG9v4aktiEax6hcRc5S4iRLMcgUan17u918bdbpRlV/m5ME6wjcc/d/5IHPbG0Nt078pz/xa2Q0tMa7bynW1p5Rmjabrea0MsTNJF85dXnlwV963wt/jkJXpibHa61UC8DbqqbR2ma/Pnjb/Mzaet8dnI97l85uuo1PbT902z0gp7bbzbn5mYPNduueycmxe9ZXNz85kZqvj6Xmixtbwyt1b2m4eubH/fDtX8QDa1OsGyyUNm0VYgVQs69UfZl67uFkO3Qab+ZzyzePvn63Afs9D97vFuB/EeDKz/3j977vTz7xpT8GgIvv/+1f27gO7HfuA7z33vvt8jtWfXPpSAWwpuJa/IYdndUSHpYgTwfUl9ut1tuandZrxyfajydxcrksq4ff8799+DkAeDHJIzs11T2+uTVYjuPYaxPXgJv2k198tPdnX3i8KrZ7Z7M8ZcijBCR3kY4jQGkqraeSNJ3IOuPmba89Jn/51adt6YqtOInP7d8/fW51dfswSpjXSQuiLN8PRF1FxsZp0kWE1TiOodWCkdLqfF2CN0bapFUzBD2sitKlWZKbJDWevZx8UbtnfufdvnPve2V9eQoAoDmzf+bwW199++zSyvb88sqWfPiTX/mdP/30w48x8yOQTtfrC48DnM7g4fvfzffef384u3WLnapXsbHpAI+78PC975bOve+Vv+k5/74B717j/b/9q0sA8E3NDT66CPLOfT8NcL8EuO+f8w8BhHTuHt9/8tSn//t/90ebuTaP1QDhwO0H97/99XdM/0mvmOv3+1++9eDs0/umJm1RlaMXXrx0ayOP79zaGpzKk3jTeyq0MX5scrKKspzXLl6kar3XVAFyrxPnDERNFbV0ZNrWjnSjmdthZRWjulBW7uGAeGp9Zcu2ZmbHUSnQSQYUxZBkWVJZT61ulJfDsmo21BaRLjVoYOPTOI27kVJtz057Z1yudfaW4wfs+XOXDz/92DPPdO49s3nDT1/vrW489uKLl95z6cLS169l1wVm/tTOa9S5971y/4d+DQCutfrEq4yt8673yPfC3H7fg/dm46OLcm0Sfl3euQ8R7rtP7h0cX1q7Y/Jjk8fX5BMPvKAunLv8zAunpv7V+srGhZmx8Re9R6pD4N6gFzeyaJ9ROBNpmorIZEqTVgTU6rThlumu+sylK8M8SyMVQct4U2EIRqUmzdI4B6T65HMv/sULz764URT16UYen7d9u7K0uj628NrXz8etMfixAwY+stEF3WyZ4eoK7p9TreX+aLXbap0X4HVEslkapybWWaR1k1l5BL1++cpyb2uz99mnnz39GTTJ5o6fXT9/5tKHnz9zqQUAmzdk6u06rgL1vQD3AsC7AADe8z0zf/+/Bu8uQBYAgHfuQ/zoosg/eAvw3//Z//pj//dW/dDYbLswGlm4UjywtLzSn1tYmDisk4RbmdlX2DprxTEkaby5dP7yH4bR6MT21mB7cqKFnkPugkTaxGBMxFGS2LyRr3c7ze3RqD5jW/5sUbjNxcFW5cD2Lp86/aVXveaun1qrZJyi5MLimbMPH1yYXBDmertXXLLTcs5Zrjw6lUZ5Hsc6JEZ7z0pEIU9MdB/97f/r40/aMV6K13YVlGoAWPv/+pz9LXhvapEBPvBHv+ffuQ/XVu67D+881IaTW1s01ZjHfr9K2hMTC2+9+4j79KjsXFnctPmUKecWpi5vD0Z6WBRubv94SwBTsDZWWhM7qFUOPU20YrQuhHGgTdioKj8EgOJhOGNhCmT8+fKh9/9P//Zn9+2bntre6K15CLqRJ28WDq4/GG30N7bWajAMGcWoIDZKbWjSlsUXRuthO4mqrJuuL/72L/v43vd+387Tdwzen/vH7/2+B3PnXe8ReBbk/vt+GgEkwH3/HOchv9xQ9KXg3GBzq3g4U3QGSiiIOc0amc+ypNBatVkEGIBjj95BWbCXNcfswEni2FfWw4bUbrQG4OG+X+fOu94rDDjx7jvtZz+wROaWiS68sL7xhiRNDgJiSFPMnzl1PnSPHLSTBYSQMta1Y6MlkSBWq7jHWb+aGz/BZxAB3vWe79t5Ucnxt/2tqX2FIzn+NkiOfxGq//V/gF/6qTcXf/L42vkHv/b8M8b6J1uz8+tSbbFRsUnzuJnGpm3iSCulh8C86tlvhF41tDoqNVEBoPvW2p4reFCG7fpR+PsBPo9wdT7kyldXSRZ//918/st/GvQHHmwcumXf3XHeaEo1rC4tD164NL3cH1/UErVD0EbVQOlIoB45FxVn9RX3leGz0pl4h3yvX9P/7qff+r0dYft+tMT33XefXPz9f7b6Cwf/6XO3/tDEqh1FtgTnaqwtCQyQ1IpRdFkDXlGKNrVXxXZc1ReWLhdLftgbrQy3ls4Ne8tjV8ofgp/3cB/ITi++8673XJWkkClKc/Njrz8GY9PTRwC53XlW8+O/+wuhfSCpL5qF0XZpB36pHMHkWv34L/xC6Dyr+ft9HlDkb/bm7H6fcLLtD/0q/tB9/5xcMR9PTI8382bWSuIo9g5tGWyv3i4G/bJVfx4e/MYLft+vS+ddL6uZTv/Ej/7Aj7/57tvu+eADjz385Nee/8R1h2v7Q7+GAALfi1LWKxlb9//q34L3ewLAd3p67ews3bLUNXo2jb1vKAhlAJXWZ3XTPb70cf4OLGIXACaugXb7++WafSfg/X8GABfGWfFYFyzwAAAAAElFTkSuQmCC;" vertex="1" parent="1">
                    <mxGeometry x="264.44" y="305.44" width="299.12" height="205.11" as="geometry"/>
                </mxCell>
                <mxCell id="10" style="edgeStyle=none;sketch=1;hachureGap=4;jiggle=2;curveFitting=1;html=1;fontFamily=Architects Daughter;fontSource=https%3A%2F%2Ffonts.googleapis.com%2Fcss%3Ffamily%3DArchitects%2BDaughter;fontSize=16;" edge="1" parent="1" source="9" target="4">
                    <mxGeometry relative="1" as="geometry"/>
                </mxCell>
                <mxCell id="9" value="Lo sfondo sarÃ  dinamico con un video in loop" style="text;html=1;align=center;verticalAlign=middle;resizable=0;points=[];autosize=1;strokeColor=none;fillColor=none;fontSize=20;fontFamily=Architects Daughter;sketch=1;hachureGap=4;jiggle=2;curveFitting=1;fontSource=https%3A%2F%2Ffonts.googleapis.com%2Fcss%3Ffamily%3DArchitects%2BDaughter;" vertex="1" parent="1">
                    <mxGeometry x="-297" y="493" width="459" height="34" as="geometry"/>
                </mxCell>
                <mxCell id="12" style="edgeStyle=none;sketch=1;hachureGap=4;jiggle=2;curveFitting=1;html=1;fontFamily=Architects Daughter;fontSource=https%3A%2F%2Ffonts.googleapis.com%2Fcss%3Ffamily%3DArchitects%2BDaughter;fontSize=16;" edge="1" parent="1" source="11" target="7">
                    <mxGeometry relative="1" as="geometry"/>
                </mxCell>
                <mxCell id="11" value="Verrano mostrati dati come:&lt;br&gt;la temperatura ecc...&lt;br&gt;" style="text;html=1;align=center;verticalAlign=middle;resizable=0;points=[];autosize=1;strokeColor=none;fillColor=none;fontSize=20;fontFamily=Architects Daughter;sketch=1;hachureGap=4;jiggle=2;curveFitting=1;fontSource=https%3A%2F%2Ffonts.googleapis.com%2Fcss%3Ffamily%3DArchitects%2BDaughter;" vertex="1" parent="1">
                    <mxGeometry x="782" y="476" width="289" height="68" as="geometry"/>
                </mxCell>
            </root>
        </mxGraphModel>
    </diagram>
</mxfile>